<svg id="Layer_1" data-name="Layer 1" xmlns="http://www.w3.org/2000/svg" xmlns:xlink="http://www.w3.org/1999/xlink" viewBox="0 0 1600 1600"><defs><style>.cls-1{fill:#fff;}.cls-2{fill:#90904f;}.cls-3{fill:#f4d9cb;}.cls-4{fill:#c65953;}.cls-11,.cls-12,.cls-14,.cls-17,.cls-21,.cls-5,.cls-7{fill:none;stroke-linecap:round;stroke-width:2.30px;}.cls-5{stroke:#0a2822;}.cls-11,.cls-14,.cls-17,.cls-5,.cls-7{stroke-linejoin:round;}.cls-6{fill:#ff6864;}.cls-7{stroke:#f4d9cb;}.cls-8{fill:#0a2822;}.cls-9{fill:#7f2920;}.cls-10,.cls-13{fill:#ffc524;}.cls-11,.cls-12{stroke:#fff;}.cls-12,.cls-21{stroke-miterlimit:10;}.cls-13{opacity:0.35;}.cls-14,.cls-21{stroke:#ffc524;}.cls-15{clip-path:url(#clip-path);}.cls-16{clip-path:url(#clip-path-2);}.cls-17{stroke:#ff6864;}.cls-18{clip-path:url(#clip-path-3);}.cls-19{clip-path:url(#clip-path-4);}.cls-20{clip-path:url(#clip-path-5);}</style><clipPath id="clip-path"><path class="cls-1" d="M1103,335.05l-.18,0a22.55,22.55,0,0,0-4.07-.19h-.17c-.36,0-.71,0-1,.08-7.11.67-12.54,4.51-12.35,8.91.14,3.49,3.79,6.32,8.86,7.38l.18,0a19.57,19.57,0,0,0,2.82.36,21.83,21.83,0,0,0,2.43,0h.19c7.6-.39,13.58-4.38,13.38-9C1112.86,338.88,1108.65,335.88,1103,335.05Z"></path></clipPath><clipPath id="clip-path-2"><path class="cls-1" d="M1063.07,330.32a18.12,18.12,0,0,0-4.33-3c-.33-.17-.67-.32-1-.46-.6-.25-1.18-.47-1.77-.65-5-1.55-9.76-.43-11.24,2.95-1.6,3.7,1.24,8.82,6.44,11.92.41.25.85.48,1.29.7l.42.2.21.1a16,16,0,0,0,6.05,1.48,17.54,17.54,0,0,1,7.73-5.15C1067.18,335.83,1065.72,332.8,1063.07,330.32Z"></path></clipPath><clipPath id="clip-path-3"><path class="cls-2" d="M480.71,1247.72l3.42-76.2s52.53,1.43,95.37,7.4a19.63,19.63,0,0,1,16.64,22.75L593,1214.29l-20.54,95.2a9.14,9.14,0,0,1-12,6.77l-.14,0c-5.21-2-8.38-3-9.56-29.27-1.72-38.24-40.82-40.26-40.82-40.26S477.53,1247.66,480.71,1247.72Z"></path></clipPath><clipPath id="clip-path-4"><path class="cls-2" d="M597.87,1289.26l-52.41-55.42s-38.81,35.43-67.32,68a19.64,19.64,0,0,0,2.27,28.09l10.64,7.51L568.83,1396a9.15,9.15,0,0,0,13.49-2.7l.07-.13c2.62-4.93,4.36-7.77-11.91-28.4-23.7-30.06,4.57-57.15,4.57-57.15S600.24,1287.14,597.87,1289.26Z"></path></clipPath><clipPath id="clip-path-5"><path class="cls-3" d="M181.36,988a7,7,0,0,1-5.67-8l13.59-79.3a17.3,17.3,0,0,0-34.1-5.85l-1.44,8.45a6.94,6.94,0,0,1-13.69-2.34l1.45-8.45A31.18,31.18,0,1,1,203,903l-13.6,79.3A6.94,6.94,0,0,1,181.36,988Z"></path></clipPath></defs><circle class="cls-4" cx="637.91" cy="909.01" r="36.42"></circle><path class="cls-4" d="M634.66,865.59l19-1.7-4.9-31.69a7.77,7.77,0,0,0-15.44,1.52Z"></path><circle class="cls-4" cx="644.18" cy="864.73" r="9.55"></circle><circle class="cls-4" cx="638.63" cy="901.6" r="11.62"></circle><polygon class="cls-4" points="627.16 899.77 650.11 903.41 653.58 866.23 634.74 863.24 627.16 899.77"></polygon><circle class="cls-4" cx="661.24" cy="905.26" r="11.62"></circle><polygon class="cls-4" points="650.16 901.75 672.32 908.77 681.29 872.52 663.1 866.75 650.16 901.75"></polygon><path class="cls-4" d="M646.24,861.67l19-1.35L661,828.54a7.77,7.77,0,0,0-15.46,1.24Z"></path><circle class="cls-4" cx="655.78" cy="860.99" r="9.55"></circle><circle class="cls-4" cx="650.04" cy="897.62" r="11.62"></circle><polygon class="cls-4" points="638.57 895.79 661.52 899.43 664.99 862.25 646.15 859.26 638.57 895.79"></polygon><circle class="cls-4" cx="665.1" cy="907.65" r="11.62"></circle><polygon class="cls-4" points="654.24 903.61 675.89 912.05 687.19 876.45 669.41 869.52 654.24 903.61"></polygon><polygon class="cls-4" points="599.33 906.31 621.89 909.29 622.01 877.03 603.94 874.64 599.33 906.31"></polygon><circle class="cls-4" cx="610.61" cy="907.8" r="11.38"></circle><circle class="cls-4" cx="613.01" cy="875.74" r="9.11"></circle><path class="cls-4" d="M605.83,870.14l14.36,11.22,9.08-15.06c2.55-3.62,3.57-6.69,3.56-9.16a6.72,6.72,0,0,0-2.54-5.48,7.6,7.6,0,0,0-10.62,1.23Z"></path><path class="cls-4" d="M670,873.9l19.07-.58-3-31.93a7.76,7.76,0,0,0-15.49.62Z"></path><circle class="cls-4" cx="679.57" cy="873.6" r="9.55"></circle><path class="cls-4" d="M662.83,865.79l19-2.12-5.6-31.58a7.78,7.78,0,0,0-8.52-6.36,7.77,7.77,0,0,0-6.88,8.22Z"></path><circle class="cls-4" cx="672.33" cy="864.72" r="9.55"></circle><path class="cls-4" d="M621.64,897s11.44,12,16.13,40-38.6-8.45-34-27S614.16,885.2,621.64,897Z"></path><path class="cls-4" d="M621.64,897s11.44,12,16.13,40"></path><path class="cls-4" d="M680.82,863.77s-4-2.62-8,1.42-27.2,23-27.2,23"></path><line class="cls-4" x1="665.32" y1="892.63" x2="679.24" y2="880.8"></line><line class="cls-5" x1="640.37" y1="875.74" x2="676.91" y2="882.78"></line><path class="cls-5" d="M623.09,875.74s11.43,12.25,14,29.52"></path><polyline class="cls-5" points="645.86 827.27 651.78 857.38 650.04 877.78"></polyline><polyline class="cls-5" points="661.66 827.27 665.31 860.32 663.48 880.8"></polyline><polyline class="cls-5" points="676.19 834.66 676.91 866.63 674.34 881.36"></polyline><circle class="cls-6" cx="504.14" cy="962.22" r="29.49"></circle><path class="cls-6" d="M571,992.08c-16.82-21.75-33.24-39.71-46.57-51.29l-45.54,36.64s12.7,23.76,34.33,61.12c14.47,25,36.81,54.15,58.13,88.25l65.72-32.48C619.48,1057.21,593.9,1021.69,571,992.08Z"></path><circle class="cls-6" cx="600.63" cy="1103.9" r="37.78"></circle><path class="cls-6" d="M638.21,1108.71l-75.61-9.4c18.11-71.41,34.81-189.21,37.64-193.08l71.36,14.61C667.54,936.51,665.79,1022.53,638.21,1108.71Z"></path><line class="cls-7" x1="580.24" y1="1013.86" x2="572.81" y2="1054.04"></line><ellipse class="cls-8" cx="839.25" cy="1177.04" rx="109.26" ry="11.85"></ellipse><rect class="cls-9" x="790.79" y="937.32" width="96" height="252.62"></rect><path class="cls-5" d="M790.79,1067s21.56,16.38,19.28,51-19.28,61.87-19.28,61.87"></path><path class="cls-5" d="M790.79,1006.08s27,32.75,34.75,74.15,2.27,71.88-3.64,87.8-1.33,23.86-1.33,23.86"></path><path class="cls-5" d="M886.79,968.32s-33.5.91-39.87,78.7,39.87,114.19,39.87,114.19"></path><path class="cls-5" d="M836.91,1188.31s1.5-27.07,11.38-31.94,5.91,32.54,10.91,35.52"></path><path class="cls-10" d="M948.27,1177.81,905,1320.58c0,3.94-29.44,7.13-65.76,7.13s-65.74-3.19-65.74-7.13l-43.28-142.77c3.63,6.19,51.06,11.09,109,11.09S944.64,1184,948.27,1177.81Z"></path><path class="cls-2" d="M700.41,790.53l-84.31,146c-16.36,28.33-80.66,109-49,149.77s103.11-20.15,118.57-63.34c0,0-4.42,100.9,45.66,101.39s61.87-174,61.87-174,43.45,214.13,134,200.6,22.53-202.08,22.31-198.39,69.87,113.59,139.78,91,10.24-112.4-58.25-200.78S851.66,624.91,818.25,638.36,756.9,685.2,700.41,790.53Z"></path><path class="cls-2" d="M722.51,576.22s-18.67,70-64.81,131.09-84,120.78-43.46,132.56S679.05,795,679.05,795s-24.3,113.42,28,110.47,65.55-154.66,65.55-154.66-4.42,86.9,16.2,98.69,18.53-74.39,18.53-74.39,27.5,146,77,133.41,12.7-173.91,12.7-173.91,59.66,130.35,126.68,123.73,20.62-80.28-22.1-145.83S922.83,564,910.31,530.7,771.85,444.39,722.51,576.22Z"></path><path class="cls-2" d="M808.67,309.61S780,398.84,718.09,486.26s-107.53,140-78.81,162.13,75.86-51.55,75.86-51.55-3.68,86.9,36.09,84,50.82-115.95,50.82-115.95S831.51,674.17,876.43,672s-6.63-121.11-6.63-121.11,56,93.12,100.9,72.5-35.35-94.71-55.24-125S819.27,291.25,808.67,309.61Z"></path><path class="cls-5" d="M673.89,834c-2.07,32.5,1.56,73.18,33.15,71.4,52.29-2.95,65.55-154.66,65.55-154.66s-4.42,86.9,16.2,98.69,18.53-74.39,18.53-74.39,27.5,146,77,133.41,12.7-173.91,12.7-173.91,59.66,130.35,126.68,123.73a57.8,57.8,0,0,0,17-4"></path><path class="cls-5" d="M715.14,596.84s-3.68,86.9,36.09,84,50.82-115.95,50.82-115.95S831.51,674.17,876.43,672s-6.63-121.11-6.63-121.11,42.39,70.52,83,75.23"></path><circle class="cls-6" cx="662.94" cy="970.12" r="27.62"></circle><polygon class="cls-8" points="670.57 943.77 655.31 943.77 658.33 936.05 667.55 936.05 670.57 943.77"></polygon><path class="cls-11" d="M686.21,955.24c2,3.09-6.84,12.26-19.69,20.48s-24.87,12.37-26.85,9.28"></path><path class="cls-11" d="M690.21,965.74c-1.67,4.19-9.36,11.36-19.62,17.92-8.61,5.51-16.86,9.2-22,10.09"></path><path class="cls-11" d="M668.94,943.16c-3.5,3.93-9.36,8.74-16.43,13.27a89.06,89.06,0,0,1-17,8.72"></path><circle class="cls-3" cx="842.23" cy="747.18" r="27.62"></circle><polygon class="cls-8" points="849.86 720.83 834.6 720.83 837.62 713.12 846.84 713.12 849.86 720.83"></polygon><path class="cls-11" d="M865.49,732.3c2,3.09-6.83,12.26-19.68,20.48s-24.87,12.37-26.85,9.28"></path><path class="cls-11" d="M869.5,742.8c-1.67,4.2-9.36,11.36-19.62,17.92-8.62,5.51-16.86,9.2-22,10.09"></path><path class="cls-11" d="M848.22,720.22c-3.5,3.93-9.35,8.74-16.43,13.27a88.72,88.72,0,0,1-17,8.72"></path><circle class="cls-6" cx="852.67" cy="514.91" r="27.62"></circle><polygon class="cls-8" points="860.3 488.56 845.05 488.56 848.06 480.85 857.29 480.85 860.3 488.56"></polygon><path class="cls-11" d="M875.94,500c2,3.09-6.84,12.26-19.68,20.48s-24.87,12.37-26.85,9.28"></path><path class="cls-11" d="M880,510.53c-1.68,4.2-9.36,11.36-19.62,17.92-8.62,5.51-16.86,9.2-22,10.09"></path><path class="cls-11" d="M858.67,488c-3.5,3.93-9.35,8.75-16.43,13.27a89,89,0,0,1-17,8.72"></path><line class="cls-12" x1="929.51" y1="734.56" x2="976.08" y2="734.56"></line><line class="cls-12" x1="952.8" y1="711.28" x2="952.8" y2="757.84"></line><line class="cls-12" x1="941.82" y1="724.02" x2="962.91" y2="745.1"></line><line class="cls-12" x1="962.91" y1="724.02" x2="941.82" y2="745.1"></line><line class="cls-12" x1="670.57" y1="557.12" x2="717.13" y2="557.12"></line><line class="cls-12" x1="693.85" y1="533.84" x2="693.85" y2="580.4"></line><line class="cls-12" x1="682.88" y1="546.58" x2="703.96" y2="567.66"></line><line class="cls-12" x1="703.96" y1="546.58" x2="682.88" y2="567.66"></line><line class="cls-12" x1="825.22" y1="400.28" x2="871.79" y2="400.28"></line><line class="cls-12" x1="848.5" y1="377" x2="848.5" y2="423.56"></line><line class="cls-12" x1="837.53" y1="389.74" x2="858.61" y2="410.82"></line><line class="cls-12" x1="858.61" y1="389.74" x2="837.53" y2="410.82"></line><line class="cls-12" x1="737.75" y1="932.72" x2="784.31" y2="932.72"></line><line class="cls-12" x1="761.03" y1="909.44" x2="761.03" y2="956.01"></line><line class="cls-12" x1="750.05" y1="922.18" x2="771.14" y2="943.27"></line><line class="cls-12" x1="771.14" y1="922.18" x2="750.05" y2="943.27"></line><circle class="cls-10" cx="761.03" cy="461.52" r="30.37"></circle><rect class="cls-1" x="751.29" y="484.39" width="19.49" height="50.08"></rect><path class="cls-3" d="M758.53,482.27s-8.37-2-6.66-11.54,7.65-12.09,7.93-18.74c0,0,8.35,9.48,9.34,17.4S766.17,482.27,758.53,482.27Z"></path><circle class="cls-13" cx="761.03" cy="461.52" r="43.52"></circle><circle class="cls-10" cx="717.51" cy="728.09" r="30.37"></circle><rect class="cls-1" x="707.76" y="750.96" width="19.49" height="50.08"></rect><path class="cls-3" d="M715,748.83s-8.37-2-6.66-11.53,7.65-12.09,7.93-18.74c0,0,8.35,9.47,9.34,17.4S722.65,748.83,715,748.83Z"></path><circle class="cls-13" cx="717.51" cy="728.09" r="43.52"></circle><circle class="cls-10" cx="886.79" cy="1015.54" r="30.37"></circle><rect class="cls-1" x="877.05" y="1038.4" width="19.49" height="50.08"></rect><path class="cls-3" d="M884.29,1036.28s-8.37-2-6.66-11.53,7.65-12.1,7.94-18.75c0,0,8.34,9.48,9.33,17.41S891.93,1036.28,884.29,1036.28Z"></path><circle class="cls-13" cx="886.79" cy="1015.54" r="43.52"></circle><circle class="cls-10" cx="974.8" cy="874.38" r="30.37"></circle><rect class="cls-1" x="965.06" y="897.24" width="19.49" height="50.08"></rect><path class="cls-3" d="M972.3,895.12s-8.37-2-6.66-11.54,7.65-12.09,7.93-18.74c0,0,8.35,9.48,9.34,17.41S979.94,895.12,972.3,895.12Z"></path><circle class="cls-13" cx="974.8" cy="874.38" r="43.52"></circle><rect class="cls-3" x="1051.57" y="1088.25" width="253.2" height="20.7"></rect><line class="cls-7" x1="1248.91" y1="1108.95" x2="1314.74" y2="1352.56"></line><line class="cls-7" x1="1110.41" y1="1108.95" x2="1044.57" y2="1352.56"></line><path class="cls-5" d="M704.56,1152l.23.76A1.49,1.49,0,0,1,704.56,1152Z"></path><path class="cls-8" d="M1154.39,363.78s2.88,6.43,15.5,7.48,41.68-5.73,56.9,19c18.72,30.47,7.15,75.28-51.5,78.73s-91.84-24.92-84.75-70.85S1152.32,359.22,1154.39,363.78Z"></path><path class="cls-4" d="M858.55,238.64c9.8,11.08,20.49,30.95,20.49,30.95s-49.93,35.69-53.89,22.1c-4.95-17-9.33-28.57-9.33-28.57l28.81-24.4"></path><circle class="cls-4" cx="852.67" cy="281.87" r="29.23"></circle><ellipse class="cls-4" cx="815.82" cy="250.5" rx="6.2" ry="6.24" transform="translate(179.17 818.82) rotate(-58.82)"></ellipse><path class="cls-4" d="M812.62,255.8l6.4-10.58-23-12a5.08,5.08,0,0,0-3.71-.39,5,5,0,0,0-3,2.24,5,5,0,0,0,1.54,6.8Z"></path><circle class="cls-4" cx="828.46" cy="271.73" r="7.73"></circle><polygon class="cls-4" points="821.77 275.61 835.14 267.84 821.02 247.11 810.73 254.36 821.77 275.61"></polygon><ellipse class="cls-4" cx="822.01" cy="241.87" rx="6.2" ry="6.24" transform="matrix(0.77, -0.64, 0.64, 0.77, 36.39, 583.91)"></ellipse><path class="cls-4" d="M817.26,245.85l9.49-7.94-17.9-18.8a5.09,5.09,0,0,0-3.38-1.57A5,5,0,0,0,802,218.7a5,5,0,0,0-.75,6.94Z"></path><line class="cls-5" x1="801.2" y1="225.64" x2="817.26" y2="245.84"></line><circle class="cls-4" cx="834.67" cy="263.12" r="7.73"></circle><polygon class="cls-4" points="827.98 267 841.35 259.24 827.23 238.5 816.94 245.75 827.98 267"></polygon><line class="cls-5" x1="817.26" y1="245.84" x2="825.06" y2="261.3"></line><ellipse class="cls-4" cx="830.1" cy="235.53" rx="6.2" ry="6.24" transform="translate(83.11 667.44) rotate(-45.88)"></ellipse><path class="cls-4" d="M825.79,240l8.61-8.89-19.74-16.83a5.06,5.06,0,0,0-6.92.3,5.05,5.05,0,0,0,0,7Z"></path><line class="cls-5" x1="807.72" y1="221.55" x2="824.9" y2="239.32"></line><circle class="cls-4" cx="842.63" cy="256.69" r="7.73"></circle><polygon class="cls-4" points="835.95 260.57 849.32 252.81 835.2 232.07 824.9 239.32 835.95 260.57"></polygon><line class="cls-5" x1="824.9" y1="239.32" x2="834.61" y2="257.99"></line><ellipse class="cls-4" cx="838.5" cy="226.4" rx="6.2" ry="6.24" transform="translate(205.33 820.9) rotate(-58.31)"></ellipse><path class="cls-4" d="M835.24,231.67l6.5-10.53-18.49-9.85a5.09,5.09,0,0,0-3.71-.42,5,5,0,0,0-1.5,9Z"></path><path class="cls-5" d="M819.54,210.87a5,5,0,0,0-1.5,9l17.2,11.77"></path><circle class="cls-4" cx="853.95" cy="245.72" r="7.73"></circle><polygon class="cls-4" points="847.86 250.48 860.03 240.96 843.22 222.35 834.01 230.94 847.86 250.48"></polygon><line class="cls-5" x1="834.01" y1="230.94" x2="846.17" y2="248.1"></line><line class="cls-5" x1="820.37" y1="264.42" x2="848.5" y2="245.72"></line><path class="cls-10" d="M815.79,177.69,824.84,196,845.07,199a8.36,8.36,0,0,1,4.64,14.26L835.06,227.5l3.46,20.16a8.36,8.36,0,0,1-12.13,8.81L808.29,247l-18.1,9.51a8.36,8.36,0,0,1-12.13-8.81l3.45-20.16-14.64-14.27A8.36,8.36,0,0,1,771.51,199L791.74,196l9-18.34A8.37,8.37,0,0,1,815.79,177.69Z"></path><circle class="cls-4" cx="848.34" cy="267.01" r="11.67"></circle><path class="cls-4" d="M857.36,259.63c-.39-.61-15-15.59-15-15.59l-10.18,10.11,4.64,15.36"></path><circle class="cls-4" cx="837.26" cy="249.05" r="7.18"></circle><path class="cls-4" d="M842.23,243.88c-1.2-.84-9.19-7-14.46-11.16a5.75,5.75,0,0,0-8.19,1.16h0a5.77,5.77,0,0,0,.5,7.36l11.06,11.56"></path><path class="cls-5" d="M832.21,275.61s-2.74-11.28,1.15-18.92"></path><line class="cls-14" x1="772.15" y1="173.03" x2="784.46" y2="184.09"></line><line class="cls-14" x1="835.24" y1="188.24" x2="849.31" y2="175.79"></line><line class="cls-14" x1="772.15" y1="230.94" x2="756.48" y2="239.99"></line><line class="cls-14" x1="808.29" y1="260.57" x2="809.23" y2="274.47"></line><line class="cls-14" x1="846.17" y1="232.65" x2="861.67" y2="238.64"></line><circle class="cls-4" cx="908.34" cy="431.16" r="32.16"></circle><path class="cls-4" d="M937.55,417.48l-58.64,27.71c-19.53-59.58-54-149.44-53.76-153.5l51.11-27.4C880.49,277.4,918.08,343,937.55,417.48Z"></path><circle class="cls-3" cx="1055.56" cy="456.21" r="25.1"></circle><path class="cls-4" d="M1007.76,414.31c22.77,5.34,42.16,11.88,55.84,18.11l-12,48s-22.89-1.44-59.46-5c-24.46-2.37-53.44-7.94-87.38-12.4l8.79-63.37C948.53,400.19,976.73,407,1007.76,414.31Z"></path><path class="cls-3" d="M1051.64,480.47s-22.9-1.45-59.46-5c-10.54-1-21.92-2.65-34.17-4.51l29.31-61.4c6.74,1.52,13.52,3.12,20.44,4.74,22.78,5.35,42.17,11.89,55.84,18.13Z"></path><rect class="cls-4" x="1063.45" y="401.16" width="60.88" height="29.93" transform="matrix(0.02, -1, 1, 0.02, 656.65, 1501.75)"></rect><circle class="cls-3" cx="1093.24" cy="446.85" r="14.98"></circle><polygon class="cls-3" points="1108.81 418.88 1108.26 446.85 1078.34 446.27 1078.87 419.4 1108.81 418.88"></polygon><path class="cls-4" d="M1043.21,330.52s-16.17,12.79-17.83,31.35c-.66,7.33-.09,15.45,3.19,22.88,5,11.4,15.44,21.45,29.74,26.69,23.63,8.66,51.12,4.8,74.07-29.31,0,0,18.74-45.7,11-58.31s-16.09-29.28-48-33.17c-35.67-4.36-44.43,13.22-47.55,20.78S1043.21,330.52,1043.21,330.52Z"></path><path class="cls-8" d="M1129.33,354.66s-13.8-17.28-7.2-35.42c3.38-9.27-18.23-20.61-39-22.65,0,0-12-2.53-23.35,1.54,0,0-2.31-5.06,11.75-9.78,20.89-7,50.31-10.14,68.87,3.5,13.65,10,31.58,40.26,15.62,69-5.72,10.32-6.81,9.58-23.66,21.26,0,0,2.47-14.57-3.05-27.47"></path><path class="cls-3" d="M1049.28,308.33s3.77-12.23,10.38-15,17.57-8.83,46.29,1.81,43.1,32.25,55.38,51.46c0,0,5.05,1.47-8.8,22.79,0,0-10.4-35.72-39.5-53C1069.94,290.85,1049.28,308.33,1049.28,308.33Z"></path><circle class="cls-6" cx="1159.45" cy="280.73" r="24.41"></circle><path class="cls-2" d="M1104.64,294.62c-21.17-7.62-32.44-6-39.48-3.56a38.45,38.45,0,0,1,6.39-2.71,117.48,117.48,0,0,1,23-5.23A40.66,40.66,0,0,1,1104.64,294.62Z"></path><path class="cls-3" d="M1119,301.18a87.64,87.64,0,0,0-13-6.08l-1.3-.48a40.66,40.66,0,0,0-10.06-11.5,94.75,94.75,0,0,1,10.78-.74h0C1109.55,285.62,1114.86,291.35,1119,301.18Z"></path><path class="cls-2" d="M1143.6,321.81a93.57,93.57,0,0,0-24.6-20.63h0c-4.13-9.83-9.44-15.56-13.62-18.8,9.4-.14,18.69,1.21,26.78,4.75C1136.92,292.36,1143.24,302.82,1143.6,321.81Z"></path><path class="cls-3" d="M1155.71,337.94a162.38,162.38,0,0,0-12.11-16.13c-.36-19-6.68-29.45-11.45-34.68a42.51,42.51,0,0,1,8.27,4.72,46,46,0,0,1,8.26,8.11s0,0,0,0C1152.14,308.22,1155.17,320.36,1155.71,337.94Z"></path><path class="cls-2" d="M1161.35,346.56h0c-1.81-2.84-3.67-5.73-5.62-8.62-.54-17.58-3.57-29.72-7-38C1157.52,310.91,1165,328.3,1161.35,346.56Z"></path><path class="cls-5" d="M1078.87,415.38a32.56,32.56,0,0,0,11.36-1.12"></path><path class="cls-1" d="M1103,335.05l-.18,0a22.55,22.55,0,0,0-4.07-.19h-.17c-.36,0-.71,0-1,.08-7.11.67-12.54,4.51-12.35,8.91.14,3.49,3.79,6.32,8.86,7.38l.18,0a19.57,19.57,0,0,0,2.82.36,21.83,21.83,0,0,0,2.43,0h.19c7.6-.39,13.58-4.38,13.38-9C1112.86,338.88,1108.65,335.88,1103,335.05Z"></path><g class="cls-15"><circle class="cls-8" cx="1092.03" cy="341.67" r="8.93"></circle></g><path class="cls-1" d="M1063.07,330.32a18.12,18.12,0,0,0-4.33-3c-.33-.17-.67-.32-1-.46-.6-.25-1.18-.47-1.77-.65-5-1.55-9.76-.43-11.24,2.95-1.6,3.7,1.24,8.82,6.44,11.92.41.25.85.48,1.29.7l.42.2.21.1a16,16,0,0,0,6.05,1.48,17.54,17.54,0,0,1,7.73-5.15C1067.18,335.83,1065.72,332.8,1063.07,330.32Z"></path><g class="cls-16"><circle class="cls-8" cx="1048.15" cy="330.76" r="8.93"></circle></g><path class="cls-4" d="M1070.53,353.3a1.51,1.51,0,0,1-1.84,1.1,1.52,1.52,0,1,1,1.84-1.1Z"></path><line class="cls-5" x1="1068.3" y1="322.57" x2="1068.23" y2="338.03"></line><path class="cls-8" d="M1070.53,353.3a1.51,1.51,0,0,1-1.84,1.1,1.52,1.52,0,1,1,1.84-1.1Z"></path><path class="cls-5" d="M1054.73,352.38a21.67,21.67,0,0,1,4.41-8.8,17.54,17.54,0,0,1,7.73-5.15c.47-.15.92-.29,1.36-.4a19.29,19.29,0,0,1,6.39-.59"></path><path class="cls-5" d="M1093.82,321.86s15.12-4.64,21.71,9"></path><path class="cls-5" d="M1047.23,313.11s7.57-5.51,16.43.87"></path><ellipse class="cls-4" cx="1142.13" cy="366.03" rx="18.98" ry="16.72" transform="translate(502.83 1380.79) rotate(-75.56)"></ellipse><path class="cls-5" d="M1133.37,372.63s4.49-12.44,16.89-11.72"></path><path class="cls-5" d="M1144.23,371.64s-3.58-5.31-7.6-4.5"></path><ellipse class="cls-1" cx="1141.82" cy="392.01" rx="8.32" ry="13.29"></ellipse><path class="cls-8" d="M1057.35,366c3.06-.13,6.13,2.11,13,7.1,0,0,10.26-14.35,15-10.65,3.41,2.67-3.46,16.37-13.37,18.7-5.92,1.39-15.07-6.28-17.06-11.11C1054.22,368.45,1055.63,366.08,1057.35,366Z"></path><circle class="cls-9" cx="1066.66" cy="558.49" r="41.3"></circle><path class="cls-3" d="M1016.08,492c.13,15.16,8.68,10.87,9.78,60.18l81.08,15.55c1.84-8.91,10-19.59,19.51-31.19,13-15.81,28.58-33.31,34.22-50.35,3.49-10.53,8-21.29,3.94-29.72-7.25-15-28.89-16.63-42.61-17-3.37-.1-6.23,0-8.25,0s-3.12.17-3.12.17c-4.51-.93-25.87-1.8-25.87-1.8-2.71-.86-12.89-3.21-19.59-4.71-3.52-.81-6.08-1.37-6.08-1.37s-13.07,14.67-23.41,26C1023.22,471.42,1016,481,1016.08,492Z"></path><path class="cls-5" d="M1019.72,506.71s6.27,12.14,18.2,11.21"></path><line class="cls-11" x1="1074.62" y1="468.42" x2="1074.62" y2="491.89"></line><line class="cls-11" x1="1067.05" y1="470.8" x2="1074.62" y2="481.56"></line><line class="cls-11" x1="1082.19" y1="470.8" x2="1074.62" y2="481.56"></line><line class="cls-11" x1="1074.62" y1="515.36" x2="1074.62" y2="491.89"></line><line class="cls-11" x1="1082.19" y1="512.98" x2="1074.62" y2="502.21"></line><line class="cls-11" x1="1067.05" y1="512.98" x2="1074.62" y2="502.21"></line><line class="cls-11" x1="1098.09" y1="491.89" x2="1074.62" y2="491.89"></line><line class="cls-11" x1="1095.71" y1="484.32" x2="1084.95" y2="491.89"></line><line class="cls-11" x1="1095.71" y1="499.46" x2="1084.95" y2="491.89"></line><line class="cls-11" x1="1051.15" y1="491.89" x2="1074.62" y2="491.89"></line><line class="cls-11" x1="1053.53" y1="499.46" x2="1064.3" y2="491.89"></line><line class="cls-11" x1="1053.53" y1="484.32" x2="1064.3" y2="491.89"></line><path class="cls-8" d="M1073.3,1027.89s-3.9,14.95,34.46,6.53,19.44-41.18,19.44-41.18L1078.29,999"></path><circle class="cls-6" cx="1118.88" cy="1012.37" r="29.67"></circle><polygon class="cls-8" points="1140.05 1064.33 1146.61 1088.25 1159.31 1088.25 1147.67 1057.11 1140.05 1064.33"></polygon><polyline class="cls-6" points="1146.96 1002.76 1175.18 1088.25 1156.02 1088.25 1146.96 1059.23 1125.65 1088.25 1057.95 1087.55 1097.2 1055.87 1089.36 1015.26"></polyline><circle class="cls-9" cx="1055.76" cy="808.21" r="46.05"></circle><path class="cls-9" d="M1100.51,798.18l59.8,206.15c-37.57-2-67.69,4.51-87,23.56L1013,824Z"></path><circle class="cls-9" cx="1017.25" cy="655.8" r="45.32"></circle><polygon class="cls-9" points="1059.99 640.27 1089.57 755.76 1099.31 793.79 1011.85 819.78 973.02 665.7 1015.41 651.56 1059.99 640.27"></polygon><path class="cls-8" d="M1151.34,1017.32s-2,19,20.26,18.5,78.91-9.31,70.79-29.91-67.21-20.37-67.21-20.37"></path><circle class="cls-6" cx="1202.05" cy="1006.48" r="31.44"></circle><polygon class="cls-8" points="1212.59 1056.68 1226.14 1088.25 1211.01 1088.25 1199.8 1057.11 1212.59 1056.68"></polygon><polygon class="cls-6" points="1172.54 1016.42 1197.21 1088.25 1216.91 1088.25 1206.54 1061.94 1238.94 1088.25 1304.77 1088.25 1247.49 1042.04 1232.6 998.99 1172.54 1016.42"></polygon><circle class="cls-9" cx="1127.68" cy="800.57" r="46.05"></circle><path class="cls-9" d="M1172.1,789.14l70.29,216.77c-35.71-8.74-65.85-4.26-90.3,13.68l-66.64-201.88Z"></path><line class="cls-5" x1="1085.45" y1="817.71" x2="1152.09" y2="1019.59"></line><line class="cls-5" x1="1159.31" y1="798.18" x2="1228.82" y2="1002.76"></line><circle class="cls-9" cx="1083.75" cy="649.46" r="45.99"></circle><polygon class="cls-9" points="1127.96 636.78 1161.13 751.29 1172.06 788.99 1085.45 817.71 1040.74 665.73 1083.75 649.46 1127.96 636.78"></polygon><polyline class="cls-5" points="1085.45 817.71 1042.6 672.07 1030.92 662.31"></polyline><line class="cls-5" x1="1112.03" y1="646.81" x2="1159.31" y2="798.18"></line><path class="cls-5" d="M1077.32,617.31s9.94,29.5,44,29.5"></path><path class="cls-9" d="M1132.61,653.29s-160.49,6.9-160.58,5.64C969.16,619,984.1,579,1025.1,566.75c0,0,5.64,5.54,32.74,9.54,23.21,3.43,46.71,1.42,46.71,1.42S1124.65,619.09,1132.61,653.29Z"></path><polygon class="cls-8" points="1022.2 567.68 1025.56 550.81 1107.24 566.42 1104.55 577.71 1022.2 567.68"></polygon><circle class="cls-3" cx="1142.32" cy="467.99" r="25.1"></circle><path class="cls-4" d="M1186.16,512.28c-6.65-22.44-14.15-41.75-21.15-55l-47.42,15s2.75,22.77,8.4,59.07c3.78,24.29,8.86,54.62,15.27,88.25l63.93-5.54C1202.69,579.19,1195.21,542.83,1186.16,512.28Z"></path><path class="cls-3" d="M1191,529.65,1131,562.49c-1.87-11.2-3.56-21.64-5-31.15-5.65-36.3-8.4-59.07-8.4-59.07l47.42-15c7,13.3,14.5,32.62,21.15,55C1187.81,517.89,1189.43,523.7,1191,529.65Z"></path><line class="cls-5" x1="1121.3" y1="499.72" x2="1128.79" y2="557.18"></line><circle class="cls-4" cx="1173.04" cy="614.65" r="32.16"></circle><path class="cls-4" d="M1186.33,643.92l-29-57.52c52.65-34,122.23-89.32,122.23-89.32L1317.47,541C1305.8,553.86,1253.44,606.15,1186.33,643.92Z"></path><line class="cls-5" x1="1177.41" y1="572.93" x2="1197.55" y2="558.61"></line><path class="cls-4" d="M1335.57,517c-6.93,13.07-18.1,24-18.1,24s-50.94-34.23-39.61-42.71c14.16-10.59,36.2-15.95,36.2-15.95l20.23,15.6"></path><circle class="cls-4" cx="1296.72" cy="520.64" r="29.23"></circle><ellipse class="cls-4" cx="1331.18" cy="472.75" rx="6.24" ry="6.2" transform="translate(621.22 1694.02) rotate(-79.38)"></ellipse><path class="cls-4" d="M1325.09,471.61l12.16,2.28,3.14-25.76a5.1,5.1,0,0,0-.94-3.61,5,5,0,0,0-9,1.85Z"></path><circle class="cls-4" cx="1315.74" cy="492.04" r="7.73"></circle><polygon class="cls-4" points="1309.76 487.14 1321.72 496.93 1336.18 476.43 1325.77 469.33 1309.76 487.14"></polygon><ellipse class="cls-4" cx="1334.93" cy="474.47" rx="6.24" ry="6.2" transform="translate(264.31 1402.34) rotate(-60.48)"></ellipse><path class="cls-4" d="M1329.54,471.42l10.77,6.1,11.31-23.36a5,5,0,0,0-8.8-4.87Z"></path><line class="cls-5" x1="1342.82" y1="449.29" x2="1329.54" y2="471.42"></line><circle class="cls-4" cx="1319.48" cy="493.79" r="7.73"></circle><polygon class="cls-4" points="1313.5 488.89 1325.46 498.68 1339.92 478.18 1329.51 471.09 1313.5 488.89"></polygon><line class="cls-5" x1="1329.54" y1="471.42" x2="1315.44" y2="486.73"></line><ellipse class="cls-4" cx="1338.77" cy="482.85" rx="6.24" ry="6.2" transform="translate(360.96 1516.94) rotate(-66.43)"></ellipse><path class="cls-4" d="M1333.09,480.38l11.34,4.94,8.83-24.4A5,5,0,0,0,1344,457Z"></path><line class="cls-5" x1="1344.01" y1="456.98" x2="1333.4" y2="479.32"></line><circle class="cls-4" cx="1323.36" cy="502.02" r="7.73"></circle><polygon class="cls-4" points="1317.38 497.12 1329.35 506.91 1343.81 486.41 1333.4 479.32 1317.38 497.12"></polygon><line class="cls-5" x1="1333.4" y1="479.32" x2="1319.33" y2="494.96"></line><ellipse class="cls-4" cx="1341.64" cy="491.73" rx="6.24" ry="6.2" transform="translate(600.04 1713.13) rotate(-78.86)"></ellipse><path class="cls-4" d="M1335.56,490.53l12.14,2.39,2.73-20.78a5,5,0,0,0-9.89-1.85Z"></path><path class="cls-5" d="M1349.53,468.53a5,5,0,0,0-9,1.76l-5,20.24"></path><circle class="cls-4" cx="1328.97" cy="512.98" r="7.73"></circle><polygon class="cls-4" points="1322.38 508.95 1335.57 517 1347.09 494.73 1335.81 489.12 1322.38 508.95"></polygon><line class="cls-5" x1="1335.81" y1="489.12" x2="1324.01" y2="506.54"></line><circle class="cls-4" cx="1291.27" cy="498.73" r="11.67"></circle><path class="cls-4" d="M1279.9,496.2c.07-.73,6.35-20.66,6.35-20.66l13.64,4.45,2.77,15.81"></path><circle class="cls-4" cx="1293.09" cy="477.71" r="7.18"></circle><path class="cls-4" d="M1286.33,475.33c.69-1.3,5-10.43,7.89-16.48a5.76,5.76,0,0,1,7.84-2.65h0a5.76,5.76,0,0,1,2.86,6.8l-4.68,15.3"></path><path class="cls-5" d="M1293.09,459.33a14.43,14.43,0,0,0-3.39,1.82c-11.12,7.88-6.19,20.69,12.36,26.42s18.3,6.92,18.3,17.3c0,0,3.21-14.87-2.71-26.59-3.2-6.33-7.23-12.37-11.78-16"></path><circle class="cls-3" cx="1320.04" cy="539.72" r="27.62"></circle><polygon class="cls-8" points="1327.67 513.37 1312.41 513.37 1315.43 505.66 1324.65 505.66 1327.67 513.37"></polygon><path class="cls-11" d="M1343.31,524.84c2,3.1-6.84,12.26-19.69,20.48s-24.87,12.37-26.85,9.28"></path><path class="cls-11" d="M1347.32,535.34c-1.68,4.2-9.37,11.37-19.63,17.93-8.61,5.51-16.86,9.19-22,10.09"></path><path class="cls-11" d="M1326,512.76c-3.5,3.93-9.36,8.75-16.43,13.27a89.06,89.06,0,0,1-17,8.72"></path><path class="cls-3" d="M692.29,1339.77l-24-8.64s-1.8-3.49,6-6.74,8.23-10.18,15.17-12.13,13.87-13.44,25.13-8.67,8.24,11.05,16.69,14.08,22.86,8.49,22.86,13.46S692.29,1339.77,692.29,1339.77Z"></path><path class="cls-6" d="M739.85,1424.37a158.62,158.62,0,0,1-57.23,0,17.48,17.48,0,0,1-14.31-17.22v-76q39.06,11,85.85,0v76A17.48,17.48,0,0,1,739.85,1424.37Z"></path><path class="cls-5" d="M679.3,1321.11s-2,3.06,14.73,2.63,20.58,3.37,29.9,2.66,9.32-8,9.32-8"></path><path class="cls-5" d="M691.21,1312.26s10.4,7.15,19.93,4.11,9-7.1,11.74-6.69"></path><path class="cls-5" d="M680.81,1333.06a25.69,25.69,0,0,1,17.33-3.69c10,1.52,19.07,6.07,22.11,6.29"></path><ellipse class="cls-17" cx="663.48" cy="1363.39" rx="17.33" ry="21.02"></ellipse><line class="cls-11" x1="709.3" y1="1349.46" x2="709.3" y2="1372.92"></line><line class="cls-11" x1="701.73" y1="1351.83" x2="709.3" y2="1362.6"></line><line class="cls-11" x1="716.87" y1="1351.83" x2="709.3" y2="1362.6"></line><line class="cls-11" x1="709.3" y1="1396.39" x2="709.3" y2="1372.92"></line><line class="cls-11" x1="716.87" y1="1394.02" x2="709.3" y2="1383.25"></line><line class="cls-11" x1="701.73" y1="1394.02" x2="709.3" y2="1383.25"></line><line class="cls-11" x1="732.77" y1="1372.92" x2="709.3" y2="1372.92"></line><line class="cls-11" x1="730.39" y1="1365.36" x2="719.62" y2="1372.92"></line><line class="cls-11" x1="730.39" y1="1380.49" x2="719.62" y2="1372.92"></line><line class="cls-11" x1="685.83" y1="1372.92" x2="709.3" y2="1372.92"></line><line class="cls-11" x1="688.21" y1="1380.49" x2="698.97" y2="1372.92"></line><line class="cls-11" x1="688.21" y1="1365.36" x2="698.97" y2="1372.92"></line><circle class="cls-3" cx="481.66" cy="1145.38" r="54.12"></circle><path class="cls-3" d="M350.39,1268.76,307.52,1174l151.82-78,53.48,93.57C418.63,1250.34,432,1230.54,350.39,1268.76Z"></path><circle class="cls-3" cx="473.25" cy="1077.63" r="54.74"></circle><circle class="cls-3" cx="543.07" cy="1180.2" r="54.12"></circle><path class="cls-3" d="M703,1220.32l-21.47-100.17-145.07,6.33,3,107.73C651.51,1237,613.45,1230.14,703,1220.32Z"></path><line class="cls-3" x1="625" y1="1120.15" x2="556.7" y2="1125.86"></line><line class="cls-5" x1="556.7" y1="1125.86" x2="566.95" y2="1152.36"></line><path class="cls-3" d="M528.14,1076.73s28.74,46,28.56,49.13-53.24,74.7-76.3,80.16-93.18-66-96.31-69.51,29.69-54,35.41-56.86S528.14,1076.73,528.14,1076.73Z"></path><path class="cls-8" d="M492.36,1285.44s13.41,1.12,18.12-20.6,2.83-74.56,2.83-74.56l-52.61,45.47S473,1273.21,492.36,1285.44Z"></path><circle class="cls-2" cx="473.27" cy="1209.26" r="39.17"></circle><path class="cls-2" d="M480.71,1247.72l3.42-76.2s52.53,1.43,95.37,7.4a19.63,19.63,0,0,1,16.64,22.75L593,1214.29l-20.54,95.2a9.14,9.14,0,0,1-12,6.77l-.14,0c-5.21-2-8.38-3-9.56-29.27-1.72-38.24-40.82-40.26-40.82-40.26S477.53,1247.66,480.71,1247.72Z"></path><g class="cls-18"><path class="cls-14" d="M561.83,1166.19c-1,14.25-15.36,13.3-16.3,27.54s13.47,15.2,12.53,29.45-15.35,13.3-16.3,27.54,13.47,15.21,12.53,29.45c0,0,4.74,23.91-18.64,32.94"></path><path class="cls-14" d="M519.5,1162.9c-1,14.24-15.36,13.29-16.3,27.54s13.47,15.2,12.53,29.44-15.36,13.3-16.3,27.55,13.47,15.2,12.53,29.45"></path></g><circle class="cls-3" cx="338.65" cy="1214.44" r="51.98"></circle><path class="cls-3" d="M496.33,1172c-15.24,5-18.07,97.16-4,113.47l-158.21-18.65,5-103.85C502.39,1168.58,496.33,1172,496.33,1172Z"></path><line class="cls-5" x1="484.13" y1="1171.52" x2="372" y2="1161.21"></line><path class="cls-8" d="M613.72,1325.42s-9.42,9.62-27.19-3.73-50.88-54.57-50.88-54.57h69.54S620.34,1303.54,613.72,1325.42Z"></path><circle class="cls-2" cx="578.35" cy="1255.3" r="39.17"></circle><path class="cls-2" d="M597.87,1289.26l-52.41-55.42s-38.81,35.43-67.32,68a19.64,19.64,0,0,0,2.27,28.09l10.64,7.51L568.83,1396a9.15,9.15,0,0,0,13.49-2.7l.07-.13c2.62-4.93,4.36-7.77-11.91-28.4-23.7-30.06,4.57-57.15,4.57-57.15S600.24,1287.14,597.87,1289.26Z"></path><g class="cls-19"><path class="cls-14" d="M506.45,1244.16c10.62,9.55,1,20.29,11.58,29.83s20.27-1.19,30.89,8.35,1,20.29,11.59,29.83,20.27-1.19,30.89,8.35"></path><path class="cls-14" d="M485.51,1282.93c10.62,9.54,1,20.28,11.59,29.83s20.27-1.2,30.89,8.34,1,20.29,11.59,29.84,20.27-1.2,30.89,8.35"></path></g><circle class="cls-3" cx="683.59" cy="1171.2" r="51.98"></circle><path class="cls-3" d="M536.47,1241.34c14.82-6.16,77.25,62.52,77.25,84.08l107.51-117.55-71.65-75.34C529.72,1243.56,536.47,1241.34,536.47,1241.34Z"></path><line class="cls-5" x1="592.34" y1="1186.39" x2="648.64" y2="1140.17"></line><path class="cls-6" d="M377.39,971.29c4.22,36.3,3.88,114.93,6.15,138.8,64.5,17.28,122.32,9.36,158.18-8.3,0,0-1.69-59.69-2.39-77.46-.77-19.81-6.08-40.17-11.38-56C522.24,951.25,510,934,510,934s-24.64-3.08-29.72-2.55c0,0-28.8-1.73-34.2-1.72,0,0-43.36-12.71-61.45,8.78C377.52,946.87,375.88,958.34,377.39,971.29Z"></path><path class="cls-9" d="M477.8,959.49c-2.44.77-12.87,1.5-15.4,1.09-14.41-2.28-56.95-12.7-48.53-37.7,5.09-15.13,18.5-20.93,45.47-19.56s45.49,10,47.18,29.52C507.86,948.28,486.66,956.67,477.8,959.49Z"></path><path class="cls-14" d="M425.43,1072.74s1.77-20.14,12.19-35"></path><polyline class="cls-14" points="421.02 1056.13 426.01 1068.5 436.81 1060.37"></polyline><polyline class="cls-14" points="425.44 1042.38 429.22 1055.25 439.92 1047.65"></polyline><path class="cls-14" d="M466.9,1024.36s5-19.59,17.66-32.56"></path><polyline class="cls-14" points="465.22 1007.26 468.15 1020.28 480.12 1013.99"></polyline><polyline class="cls-14" points="471.79 994.4 473.45 1007.71 485.23 1001.93"></polyline><path class="cls-14" d="M493.44,1059.56s6.93-19,20.85-30.61"></path><polyline class="cls-14" points="493.49 1042.38 495.09 1055.62 507.63 1050.57"></polyline><polyline class="cls-14" points="501.32 1030.25 501.63 1043.66 513.94 1039.1"></polyline><path class="cls-5" d="M459.3,953.72s-7.9.87-4.76,45.86"></path><path class="cls-5" d="M477.11,958.61s8.05,1.16,7.45,21.13"></path><line class="cls-5" x1="541.72" y1="1082.21" x2="536.47" y2="1005.41"></line><circle class="cls-6" cx="398.95" cy="963.31" r="29.49"></circle><path class="cls-6" d="M336.29,1001.15c14-23.64,28.11-43.48,39.91-56.61l49.7,30.75s-9.68,25.15-26.56,64.88c-11.29,26.58-25.79,59.68-42.76,96.14l-71.24-24.68C298.22,1072.64,317.19,1033.36,336.29,1001.15Z"></path><circle class="cls-4" cx="209.35" cy="960.7" r="36.42"></circle><path class="cls-4" d="M193.68,911.61l-17.49,7.62-10.91-30.16A7.77,7.77,0,0,1,179.55,883Z"></path><circle class="cls-4" cx="184.91" cy="915.42" r="9.55"></circle><circle class="cls-4" cx="207.47" cy="945.1" r="11.62"></circle><polygon class="cls-4" points="216.66 937.99 198.28 952.21 177.38 921.25 192.48 909.58 216.66 937.99"></polygon><path class="cls-4" d="M171.79,923.78l-14.87,11.94-18.43-26.25A7.77,7.77,0,0,1,140,899a7.76,7.76,0,0,1,10.68.92Z"></path><circle class="cls-4" cx="164.34" cy="929.76" r="9.55"></circle><circle class="cls-4" cx="191.63" cy="955.14" r="11.62"></circle><polygon class="cls-4" points="199.47 946.57 183.79 963.71 157.91 936.78 170.79 922.71 199.47 946.57"></polygon><path class="cls-4" d="M179.94,914.12l-16.47,9.62L149.1,895.07a7.77,7.77,0,0,1,13.46-7.7Z"></path><circle class="cls-4" cx="171.69" cy="918.93" r="9.55"></circle><circle class="cls-4" cx="197.09" cy="945.93" r="11.62"></circle><polygon class="cls-4" points="205.53 937.94 188.64 953.91 164.79 925.17 178.65 912.07 205.53 937.94"></polygon><path class="cls-4" d="M165.14,935.62l-14.35,12.57-19.54-25.43A7.77,7.77,0,0,1,143,912.65Z"></path><circle class="cls-4" cx="157.95" cy="941.91" r="9.55"></circle><circle class="cls-4" cx="184.07" cy="968.26" r="11.62"></circle><polygon class="cls-4" points="192.36 960.17 175.98 976.65 151.24 948.67 164.69 935.14 192.36 960.17"></polygon><line class="cls-5" x1="167.17" y1="952.68" x2="207.53" y2="924.78"></line><path class="cls-5" d="M207.76,924.74s-15.19,27.17-10.58,43"></path><polyline class="cls-5" points="167.47 894.93 178.65 912.07 197.8 931.67"></polyline><polyline class="cls-5" points="152.29 901.71 171.79 923.78 185.75 938.99"></polyline><path class="cls-5" d="M138.49,909.47a69,69,0,0,1,8,6.75c3.25,3.37,29,30.29,29,30.29"></path><path class="cls-3" d="M181.36,988a7,7,0,0,1-5.67-8l13.59-79.3a17.3,17.3,0,0,0-34.1-5.85l-1.44,8.45a6.94,6.94,0,0,1-13.69-2.34l1.45-8.45A31.18,31.18,0,1,1,203,903l-13.6,79.3A6.94,6.94,0,0,1,181.36,988Z"></path><g class="cls-20"><rect class="cls-6" x="180.54" y="953.51" width="8" height="33.65" transform="translate(-706.65 544.44) rotate(-53.69)"></rect><rect class="cls-6" x="186.08" y="925.57" width="8" height="26.43" transform="translate(-642.48 465.18) rotate(-48.92)"></rect><rect class="cls-6" x="192.22" y="893.5" width="8" height="28.18" transform="translate(-681.04 603.19) rotate(-58.66)"></rect><rect class="cls-6" x="168.73" y="869.95" width="21.75" height="8" transform="translate(-680.18 635.57) rotate(-62.89)"></rect><rect class="cls-6" x="146.4" y="871.85" width="8" height="30.25" transform="translate(-573.84 353.28) rotate(-43.99)"></rect></g><polygon class="cls-4" points="238.03 938.79 217.91 949.42 206.59 919.21 222.71 910.69 238.03 938.79"></polygon><circle class="cls-4" cx="227.97" cy="944.11" r="11.38"></circle><circle class="cls-4" cx="214.27" cy="914.74" r="9.11"></circle><path class="cls-4" d="M214.54,905.63,214,923.85l-17.39-2.62c-4.42-.36-7.43-1.53-9.32-3.11a6.7,6.7,0,0,1-2.6-5.46,7.61,7.61,0,0,1,7.73-7.39Z"></path><circle class="cls-6" cx="321.8" cy="1121.55" r="37.78"></circle><path class="cls-6" d="M289.15,1142l60.66-46.1c-46-57.57-99.86-152.69-104-155l-71.89,51.19C184.06,1004.67,228.47,1074.9,289.15,1142Z"></path><line class="cls-5" x1="312.35" y1="1045.72" x2="340.87" y2="1084.49"></line><line class="cls-5" x1="379.49" y1="1085.88" x2="409.14" y2="1013.56"></line><polygon class="cls-4" points="445.1 928.56 480.24 929.86 482.31 875.5 447.17 874.19 445.1 928.56"></polygon><circle class="cls-4" cx="462.72" cy="929.56" r="17.6"></circle><path class="cls-4" d="M524.94,823.27s17.09,15.17,17.78,35.82c.27,8.15-.88,17.1-5,25.13-6.29,12.3-18.44,22.77-34.59,27.67C476.47,920,446.28,914,423,874.82c0,0-17.88-51.76-8.58-65.23s19.66-31.4,55.2-33.72c39.75-2.58,48.35,17.41,51.34,26S524.94,823.27,524.94,823.27Z"></path><path class="cls-8" d="M432.5,812.9l-16.36,8.56,13.25-.59,4.67,23.89H419.25l-8.7-8.19s-7.65-6.15-3.76-26.23,36.57-39.3,61.91-40.85,37,8.35,43.75,18.16c0,0-18.38-6-43.75-3C468.7,784.63,465.23,801.53,432.5,812.9Z"></path><path class="cls-8" d="M475.13,781.9c15-3.21,31.48-10.89,35.88-28.93a5.91,5.91,0,0,0-11.48-2.8c-6,24.65-49.75,22.06-50.19,22a5.91,5.91,0,0,0-.78,11.8A106.33,106.33,0,0,0,475.13,781.9Z"></path><path class="cls-8" d="M535.88,784.73a5.91,5.91,0,0,0,1.2-11.16c-5.35-2.43-52.89-23.07-73.74-1.66a5.91,5.91,0,0,0,8.47,8.25c12.81-13.17,47.95-1.45,60.4,4.17A5.94,5.94,0,0,0,535.88,784.73Z"></path><path class="cls-8" d="M436.23,793.59c2.22-.47,5-2.42,5.54-4.78,1.3-6.21,9.52-10.54,19-15.55,12-6.33,27-14.2,35.2-30.08a5.91,5.91,0,0,0-10.5-5.43c-6.5,12.58-18.55,18.92-30.21,25s-19.73,10.83-20.5,22.71A19.7,19.7,0,0,0,436.23,793.59Z"></path><ellipse class="cls-4" cx="413.22" cy="856.39" rx="18.53" ry="21.04" transform="translate(-158.55 96.63) rotate(-11.21)"></ellipse><path class="cls-5" d="M422.51,864.24s-4.2-14-18-14"></path><path class="cls-5" d="M410.55,862.46s4.29-5.65,8.7-4.5"></path><path class="cls-5" d="M480.16,915a36.26,36.26,0,0,1-12.51-2"></path><path class="cls-4" d="M510.82,846.74C507,827.92,489.74,829,489.74,829l-2.08,22.77"></path><line class="cls-5" x1="497.66" y1="812.9" x2="496.78" y2="830.02"></line><circle class="cls-8" cx="494.92" cy="846.45" r="1.69"></circle><path class="cls-5" d="M489.74,829s17.25-1.05,21.08,17.77"></path><path class="cls-5" d="M475.39,816.2s-18.08-11.39-36.43,7.41"></path><path class="cls-5" d="M523,809.69s-9.33-8.36-19.21.65"></path><path class="cls-5" d="M446.91,832.31s13.52-8,30.77,3.07"></path><path class="cls-5" d="M501.56,832.24s7.65-15,21.77-10.54"></path><path class="cls-5" d="M477.51,851.16s.38,12.39,14.82,11"></path><path class="cls-8" d="M496.4,295.63q-1.57,3.72-3.44,8.82t-3.91,11.33q-1.74,5.22-3.32,11t-3,11.34q-1.38,5.58-2.48,10.67t-1.9,9q-.79,3.85-1.23,6.18c-.29,1.54-.43,2.33-.42,2.36a2.37,2.37,0,0,1-1.57,1.85,1.68,1.68,0,0,1-1.21,0,1.46,1.46,0,0,1-.83-.79s-.28-.65-.83-1.86-1.27-2.82-2.19-4.84-2-4.35-3.16-7-2.43-5.4-3.73-8.27l-4-8.74q-2-4.44-3.77-8.45-1.75,10.26-3.9,18.46a115.28,115.28,0,0,1-4.8,14.66A68.37,68.37,0,0,1,441,372.66a48.89,48.89,0,0,1-7,8.58,43.44,43.44,0,0,1-8.23,6.28,59,59,0,0,1-9.58,4.5,34.34,34.34,0,0,1-5.78,1.53,31.67,31.67,0,0,1-6.31.48,28.83,28.83,0,0,1-6.23-.82,18.45,18.45,0,0,1-5.59-2.39,15.19,15.19,0,0,1-4.34-4.23,15.94,15.94,0,0,1-2.45-6.36,16.74,16.74,0,0,1,.46-7.88A23.61,23.61,0,0,1,389.7,365a29.7,29.7,0,0,1,6.29-6.16,31.54,31.54,0,0,1,8.07-4.28,30.87,30.87,0,0,1,5.81-1.53,25,25,0,0,1,4.7-.31,15.46,15.46,0,0,1,3.62.51,20.48,20.48,0,0,1,2.59.87,7.06,7.06,0,0,1,1.56.86,2.15,2.15,0,0,0,.56.39,1.8,1.8,0,0,1,.48.91,2.13,2.13,0,0,1-.31,1.44,2.34,2.34,0,0,1-1.3,1.09,1.74,1.74,0,0,1-1.77-.24l-1-.6a9,9,0,0,0-2.83-1,19.56,19.56,0,0,0-4.8-.24,24.73,24.73,0,0,0-6.83,1.57,26.53,26.53,0,0,0-6.63,3.48,23.84,23.84,0,0,0-5.1,5,19.49,19.49,0,0,0-3,5.89,13.12,13.12,0,0,0-.4,6.24,12.59,12.59,0,0,0,2.09,5.21,12.9,12.9,0,0,0,3.7,3.48,15.59,15.59,0,0,0,4.79,1.93,25.16,25.16,0,0,0,5.36.6,29.56,29.56,0,0,0,5.4-.49,30.06,30.06,0,0,0,5-1.32,60.25,60.25,0,0,0,7.46-3.33,37.58,37.58,0,0,0,6.89-4.76,43.11,43.11,0,0,0,6.26-6.81,54.63,54.63,0,0,0,5.56-9.5A94.44,94.44,0,0,0,446.72,351a167.36,167.36,0,0,0,4.06-16.77c.37-1.9.71-3.93,1-6.07s.61-4.32.93-6.5c-1.06-2.62-1.9-4.88-2.5-6.78a38.28,38.28,0,0,1-1.24-4.82,13.76,13.76,0,0,1-.25-3.49,6.18,6.18,0,0,1,.57-2.21,3,3,0,0,1,1.06-1.23,5.56,5.56,0,0,1,1.22-.61,4.38,4.38,0,0,1,1.16-.2,2.1,2.1,0,0,1,1.3.44,4.34,4.34,0,0,1,1.21,1.59,12.37,12.37,0,0,1,.94,3.24,38.66,38.66,0,0,1,.49,5.49q.07,3.18-.18,7.14c.78,1.8,1.66,3.79,2.65,6l3.05,6.83c1.05,2.36,2.13,4.76,3.23,7.22l3.22,7.18,3,6.69q1.44,3.18,2.62,5.75.76-3.73,1.89-9t2.58-11.33q1.47-6,3.16-12.33t3.62-12q2.7-8.13,5.1-14.09t4.19-9.92q1.8-4,2.88-5.92c.72-1.3,1.11-2,1.16-2.13a2.3,2.3,0,0,1,1.22-1,1.59,1.59,0,0,1,1.44.08,1.47,1.47,0,0,1,.73,1.08,1.72,1.72,0,0,1,0,.71s-.1.56-.31,1.59-.48,2.43-.77,4.2-.6,3.82-.92,6.16-.59,4.84-.82,7.49-.36,5.38-.4,8.2a80.83,80.83,0,0,0,.28,8.29c.11,1.24.25,2.53.41,3.86s.36,2.67.6,4c.36,2.08.83,4.15,1.39,6.2a42.35,42.35,0,0,0,2,5.76,24.78,24.78,0,0,0,2.82,4.84,14.27,14.27,0,0,0,3.65,3.48,10.93,10.93,0,0,0,4.6,1.63,12.7,12.7,0,0,0,5.67-.72,1.45,1.45,0,0,1,1.34.19,1.7,1.7,0,0,1,.68,1.08,2,2,0,0,1-.33,1.37,2.19,2.19,0,0,1-1.17,1,9.61,9.61,0,0,1-1.57.43,16.48,16.48,0,0,1-6.49.3,14.22,14.22,0,0,1-5.26-2,16,16,0,0,1-4.11-3.83,27.64,27.64,0,0,1-3.13-5.29,40.58,40.58,0,0,1-2.27-6.32c-.62-2.24-1.14-4.56-1.56-6.93a83.65,83.65,0,0,1-1-8.61q-.3-4.38-.27-8.66t.36-8.37Q495.93,299.21,496.4,295.63Z"></path><path class="cls-8" d="M530.25,342.67a5.92,5.92,0,0,0,3,1.24,8.51,8.51,0,0,0,4-.6,10.51,10.51,0,0,0,4.06-2.66,18.79,18.79,0,0,0,3-4.16,30.26,30.26,0,0,0,2.12-5q.86-2.66,1.48-5.22a2.09,2.09,0,0,1,.53-1,2.13,2.13,0,0,1,.91-.6,1.51,1.51,0,0,1,2.11,1.12,1.46,1.46,0,0,1,0,.41,2.45,2.45,0,0,1-.08.41,44.11,44.11,0,0,1-5.3,13.33,17.07,17.07,0,0,1-8.17,6.94,11.68,11.68,0,0,1-5.68.81A9.24,9.24,0,0,1,527.9,346a10.43,10.43,0,0,1-3-3.5,15.18,15.18,0,0,1-1.56-4.54,16.26,16.26,0,0,1-.17-4.65,13.66,13.66,0,0,1,1.12-4.16,11,11,0,0,1,2.29-3.33,8.72,8.72,0,0,1,3.29-2.09,5.66,5.66,0,0,1,2.26-.34,5.32,5.32,0,0,1,2.17.56,5.06,5.06,0,0,1,1.74,1.5,6,6,0,0,1,1,2.49,10.66,10.66,0,0,1-.05,3.86,15.31,15.31,0,0,1-1.29,3.81,21.61,21.61,0,0,1-2.34,3.71A28.73,28.73,0,0,1,530.25,342.67Zm-2-2.53a15.86,15.86,0,0,0,2.45-2.54,15.48,15.48,0,0,0,1.73-2.83,11.63,11.63,0,0,0,.93-2.86,7.4,7.4,0,0,0,0-2.69,2.44,2.44,0,0,0-1.09-1.88,2.06,2.06,0,0,0-1.8-.12,4.4,4.4,0,0,0-2.09,1.5,7.17,7.17,0,0,0-1.18,2.38,11.23,11.23,0,0,0-.4,2.82,15.55,15.55,0,0,0,.21,2.85,9.53,9.53,0,0,0,.48,1.73A14.69,14.69,0,0,0,528.27,340.14Z"></path><path class="cls-8" d="M552.07,319.73a23.17,23.17,0,0,1-.07,2.53c-.06.8-.13,1.51-.21,2.12s-.15,1.1-.22,1.49a5,5,0,0,1-.14.65A2.21,2.21,0,0,1,550,328.2a1.68,1.68,0,0,1-1.32,0,1.29,1.29,0,0,1-.79-1,.85.85,0,0,1,0-.46,6.27,6.27,0,0,0,.18-.66,14.07,14.07,0,0,0,.24-1.58c.07-.73.14-1.83.18-3.3-.54.19-1.09.38-1.67.55a5.22,5.22,0,0,1-1.65.25,2.06,2.06,0,0,1-2.14-2,7.56,7.56,0,0,1,.08-2.32,16.91,16.91,0,0,1,.75-3.11,14.44,14.44,0,0,1,1.32-2.89A3.5,3.5,0,0,1,546.9,310a2,2,0,0,1,1.92.15,4.66,4.66,0,0,1,1.41,1.56,11.44,11.44,0,0,1,1,2.22,15.75,15.75,0,0,1,.55,2.14l1.59-.6c.52-.21,1-.39,1.49-.56a6.14,6.14,0,0,1,4.32-.32c1.08.44,1.77,1.54,2.08,3.31a19.82,19.82,0,0,1,.24,2.3q.06,1.21.09,2.52c0,.87.05,1.73.09,2.57a23.14,23.14,0,0,0,.27,2.43,6.34,6.34,0,0,0,1,2.61,4,4,0,0,0,1.49,1.31A3.29,3.29,0,0,0,566,332a4.89,4.89,0,0,0,1.51-.28,8.11,8.11,0,0,0,3.58-2.7,24.08,24.08,0,0,0,2.75-4.34,39.47,39.47,0,0,0,2-4.87c.56-1.65,1-3.09,1.38-4.3a2.06,2.06,0,0,1,.54-.89,2.33,2.33,0,0,1,.85-.56,1.53,1.53,0,0,1,1.4.06,1.44,1.44,0,0,1,.67,1,2,2,0,0,1,0,.9q-.75,2.29-1.76,5.21a40.65,40.65,0,0,1-2.49,5.67,25.85,25.85,0,0,1-3.49,5,11.64,11.64,0,0,1-4.77,3.28,8.32,8.32,0,0,1-3.31.55,6.08,6.08,0,0,1-2.93-.86,6.83,6.83,0,0,1-2.28-2.29,9.76,9.76,0,0,1-1.35-3.7,23.92,23.92,0,0,1-.33-4.82,23.08,23.08,0,0,0-.29-4.59,1.62,1.62,0,0,0-.63-1.18c-.32-.2-.94-.14-1.86.2l-1.44.52Q553,319.36,552.07,319.73Zm-3.78-2.32c0-.22-.1-.5-.18-.86s-.17-.69-.28-1a4.61,4.61,0,0,0-.34-.82c-.12-.22-.23-.31-.33-.28s-.19.2-.29.48a9.53,9.53,0,0,0-.31,1c-.1.38-.18.79-.25,1.21s-.1.77-.12,1Z"></path><path class="cls-8" d="M581.33,309.14q0,1.32-.06,2.52t-.21,2.1c-.08.6-.15,1.1-.22,1.48a3.37,3.37,0,0,1-.14.64,2.19,2.19,0,0,1-1.45,1.67,1.68,1.68,0,0,1-1.3-.05,1.3,1.3,0,0,1-.78-1,1,1,0,0,1,0-.46,4.63,4.63,0,0,0,.19-.66,13.71,13.71,0,0,0,.23-1.56c.07-.72.13-1.81.18-3.28-.53.19-1.08.38-1.65.55a5.31,5.31,0,0,1-1.62.24,2,2,0,0,1-2.11-2,7.76,7.76,0,0,1,.08-2.3,16.57,16.57,0,0,1,.74-3.08,14.78,14.78,0,0,1,1.29-2.87,3.54,3.54,0,0,1,1.72-1.62,2,2,0,0,1,1.89.16,4.58,4.58,0,0,1,1.39,1.55,11.84,11.84,0,0,1,.94,2.2,14.37,14.37,0,0,1,.54,2.12c.53-.19,1-.38,1.57-.59l1.46-.55a6,6,0,0,1,4.26-.3c1.06.43,1.74,1.53,2.05,3.29a19.46,19.46,0,0,1,.24,2.28c0,.8.07,1.64.08,2.5s.05,1.71.1,2.55a20.2,20.2,0,0,0,.26,2.41,6.39,6.39,0,0,0,.94,2.59,3.89,3.89,0,0,0,1.46,1.31,3.46,3.46,0,0,0,1.64.36,4.69,4.69,0,0,0,1.48-.28,8,8,0,0,0,3.53-2.66,23.93,23.93,0,0,0,2.71-4.3,40.24,40.24,0,0,0,2-4.83q.83-2.46,1.35-4.26a2.23,2.23,0,0,1,.54-.88,2.19,2.19,0,0,1,.83-.55,1.51,1.51,0,0,1,1.39.06,1.5,1.5,0,0,1,.66,1,2.09,2.09,0,0,1,0,.9c-.5,1.51-1.07,3.23-1.74,5.16a41,41,0,0,1-2.44,5.62,25.27,25.27,0,0,1-3.44,5,11.55,11.55,0,0,1-4.69,3.24,8.24,8.24,0,0,1-3.26.54,6.18,6.18,0,0,1-2.89-.86,7,7,0,0,1-2.25-2.28,10.06,10.06,0,0,1-1.32-3.68,23.52,23.52,0,0,1-.33-4.78,22.72,22.72,0,0,0-.29-4.55,1.65,1.65,0,0,0-.62-1.18c-.31-.2-.92-.14-1.83.19l-1.42.52C582.47,308.68,581.92,308.9,581.33,309.14Zm-3.73-2.3c0-.22-.09-.5-.17-.85s-.17-.69-.27-1a5.35,5.35,0,0,0-.34-.81c-.12-.22-.23-.32-.32-.28s-.19.19-.29.47a10.06,10.06,0,0,0-.31,1,10.61,10.61,0,0,0-.24,1.2c-.06.42-.1.76-.12,1Z"></path><path class="cls-8" d="M625.71,313.81c.88-1.46,1.78-2.95,2.68-4.47s1.76-3.07,2.59-4.67,1.57-3.22,2.23-4.88a38.49,38.49,0,0,0,1.67-5.1,2.21,2.21,0,0,1,.5-1,2.3,2.3,0,0,1,.87-.58,1.45,1.45,0,0,1,1.34.1,1.53,1.53,0,0,1,.69,1.06,2.05,2.05,0,0,1,0,.74,42.23,42.23,0,0,1-2.3,6.61q-1.4,3.14-3,6.09t-3.32,5.8q-1.7,2.84-3.2,5.63a55.53,55.53,0,0,0,1.08,6.36c.49,2.08.93,4.31,1.34,6.69.33,2,.61,3.93.82,5.93s.33,3.95.36,5.84a40.11,40.11,0,0,1-.25,5.44,20.62,20.62,0,0,1-1.11,4.73,12.36,12.36,0,0,1-2.1,3.67,7.74,7.74,0,0,1-3.25,2.29c-2.17.82-4,.71-5.38-.35s-2.36-2.95-2.82-5.64a26,26,0,0,1-.33-4.92,47.24,47.24,0,0,1,.46-5.73c.27-2,.66-4.09,1.15-6.23s1.07-4.26,1.72-6.36,1.37-4.13,2.17-6.11,1.64-3.8,2.52-5.49c-.19-1.49-.38-3-.58-4.65s-.36-3.09-.5-4.47a14,14,0,0,1-2.37,4.48,8.31,8.31,0,0,1-3.65,2.71c-2.33.85-4.28.74-5.87-.34s-2.62-3-3.09-5.73a25.41,25.41,0,0,1-.36-5.68,39.41,39.41,0,0,1,.52-4.69,21.22,21.22,0,0,1,.76-3.17c.26-.76.39-1.12.39-1.09a2.1,2.1,0,0,1,1.3-1.3,1.46,1.46,0,0,1,2,1.12,2,2,0,0,1-.12,1s-.08.26-.31.91a18.72,18.72,0,0,0-.66,2.72,32,32,0,0,0-.43,4,21.8,21.8,0,0,0,.31,4.83,6.34,6.34,0,0,0,1.6,3.63,2.93,2.93,0,0,0,3.23.33q2.61-1,4.06-5.61a48.51,48.51,0,0,0,1.64-12.59,1.93,1.93,0,0,1,.38-1.18,2.07,2.07,0,0,1,1-.79,1.51,1.51,0,0,1,1.32.06,1.41,1.41,0,0,1,.71,1.06c0,.09.05.66.1,1.69s.13,2.42.24,4.13.27,3.7.46,6S625.41,311.29,625.71,313.81Zm-2,11.08a76.83,76.83,0,0,0-2.7,7.69,75,75,0,0,0-1.83,7.67,57,57,0,0,0-.86,7,25.72,25.72,0,0,0,.23,5.59,6.52,6.52,0,0,0,1.42,3.45,2.32,2.32,0,0,0,2.7.42,4.55,4.55,0,0,0,2.42-2.51,15.66,15.66,0,0,0,1.24-5,42.58,42.58,0,0,0,.07-7.13,86.06,86.06,0,0,0-1.09-8.93c-.22-1.32-.47-2.64-.75-4S624,326.41,623.72,324.89Z"></path><path class="cls-8" d="M502.79,466.64a50.13,50.13,0,0,1-5.42,9.74,71.86,71.86,0,0,1-8.46,10,74.23,74.23,0,0,1-11,9A56.84,56.84,0,0,1,465,501.87a67.73,67.73,0,0,1-10.87,2.85,51.44,51.44,0,0,1-10.75.79,37.79,37.79,0,0,1-9.94-1.63,25.75,25.75,0,0,1-8.4-4.36,23.75,23.75,0,0,1-6.15-7.42,29.47,29.47,0,0,1-3.15-10.73,38,38,0,0,1,.57-12.12,47.68,47.68,0,0,1,4.11-11.7,58.49,58.49,0,0,1,7-10.78,67.17,67.17,0,0,1,9.21-9.34A70.26,70.26,0,0,1,447.4,430a62.89,62.89,0,0,1,11.81-5.1,52.61,52.61,0,0,1,12.73-2.43,32.42,32.42,0,0,1,10.72,1,17.6,17.6,0,0,1,7.72,4.33,12.89,12.89,0,0,1,3.67,7.63,19.37,19.37,0,0,1-.94,8.92,29.68,29.68,0,0,1-4.79,8.8,38.9,38.9,0,0,1-7.94,7.6,38.36,38.36,0,0,1-10.33,5.29,28.35,28.35,0,0,1-8.22,1.62,15,15,0,0,1-6.29-1,9.69,9.69,0,0,1-4.17-3.32,11.19,11.19,0,0,1-1.92-5.17,13,13,0,0,1,.26-4.79,23.22,23.22,0,0,1,1.35-4.08,18.06,18.06,0,0,1,1.56-2.88c.51-.74.79-1.16.86-1.25a1.74,1.74,0,0,1,.56-.52,3.27,3.27,0,0,1,.65-.28,1.92,1.92,0,0,1,1.48,0,1.33,1.33,0,0,1,.74,1.11,2.34,2.34,0,0,1-.49,1.73,9.19,9.19,0,0,0-.65.91,17,17,0,0,0-1.15,2.15,16.54,16.54,0,0,0-1,3,9.7,9.7,0,0,0-.19,3.53,7.13,7.13,0,0,0,2,4.41,8.09,8.09,0,0,0,3.91,2,14.34,14.34,0,0,0,5,.18,27.85,27.85,0,0,0,5.3-1.21,32.53,32.53,0,0,0,8.86-4.53,34,34,0,0,0,6.8-6.42,25.08,25.08,0,0,0,4.13-7.31,15.27,15.27,0,0,0,.86-7.28,10.07,10.07,0,0,0-3.19-6.27,15.3,15.3,0,0,0-6.8-3.46,30.36,30.36,0,0,0-9.46-.61,49.76,49.76,0,0,0-11.26,2.27,54.64,54.64,0,0,0-9.31,4,67.34,67.34,0,0,0-9.47,6.19A70.88,70.88,0,0,0,432,447a52.13,52.13,0,0,0-7,9.78,45.14,45.14,0,0,0-4.37,11.13,34,34,0,0,0-.72,12.09,26.11,26.11,0,0,0,2.87,9.68,20.52,20.52,0,0,0,5.58,6.58A23.26,23.26,0,0,0,436,500a35.48,35.48,0,0,0,9,1.36,46.88,46.88,0,0,0,9.68-.79A62.5,62.5,0,0,0,464.4,498a52.82,52.82,0,0,0,12-6,68.81,68.81,0,0,0,10.1-8.2,65.69,65.69,0,0,0,7.79-9.16,46.62,46.62,0,0,0,5-8.88,2.06,2.06,0,0,1,.62-.92,2.76,2.76,0,0,1,.93-.55,1.57,1.57,0,0,1,1.45.11,1.5,1.5,0,0,1,.68,1.09,2.24,2.24,0,0,1,0,.52A1.79,1.79,0,0,1,502.79,466.64Z"></path><path class="cls-8" d="M514,477.73c.38-1.32.82-2.76,1.34-4.31s1.07-3.16,1.68-4.81,1.26-3.3,2-5,1.45-3.24,2.24-4.75a13.45,13.45,0,0,1,2.55-3.47,7.45,7.45,0,0,1,2.64-1.69,4.59,4.59,0,0,1,2.32-.25,3.46,3.46,0,0,1,1.78.86,5.16,5.16,0,0,1,1.24,1.73,8.71,8.71,0,0,1,.7,2.44,25.93,25.93,0,0,1,.23,3.09,35.83,35.83,0,0,0,.36,4,21.11,21.11,0,0,0,.48,2.29,7.54,7.54,0,0,0,.75,1.92,2.69,2.69,0,0,0,1.18,1.14,2.28,2.28,0,0,0,1.76,0,6,6,0,0,0,2.26-1.49,14.79,14.79,0,0,0,2-2.57,30.53,30.53,0,0,0,1.79-3.2c.54-1.13,1-2.24,1.44-3.33s.77-2.11,1.07-3.09.53-1.78.7-2.42a2.23,2.23,0,0,1,1.53-1.69,1.45,1.45,0,0,1,1.4.13,1.62,1.62,0,0,1,.68,1.1,1.82,1.82,0,0,1,0,.77c-.08.31-.25.93-.5,1.87s-.6,2.05-1.07,3.34-1,2.67-1.7,4.14a34,34,0,0,1-2.31,4.23,20.37,20.37,0,0,1-3,3.63,10,10,0,0,1-3.62,2.28,6.1,6.1,0,0,1-3.8.32,5.09,5.09,0,0,1-2.51-1.69,8.77,8.77,0,0,1-1.53-2.95,21.86,21.86,0,0,1-.8-3.46c-.09-.6-.16-1.24-.21-1.93s-.09-1.37-.12-2.05-.06-1.31-.09-1.9-.09-1.09-.14-1.48a3.24,3.24,0,0,0-.73-1.92,1.06,1.06,0,0,0-1-.21,3.83,3.83,0,0,0-1.68,1.53,22.44,22.44,0,0,0-1.78,3.11c-.61,1.25-1.19,2.61-1.76,4.1s-1.11,3-1.64,4.44-1,2.86-1.4,4.17-.74,2.39-1,3.25a9.82,9.82,0,0,1-1.74,3.58,4.75,4.75,0,0,1-1.83,1.4,2.38,2.38,0,0,1-2.58-.38,4.42,4.42,0,0,1-1.26-2.69l-.44-3.15q-1.34-9.43-2.52-17.95t-2-15.8q-.8-7.29-1.1-13.29a68,68,0,0,1,.17-10.39,22.34,22.34,0,0,1,1.76-7.14,6.16,6.16,0,0,1,3.72-3.47,5.25,5.25,0,0,1,3.67,0,6.47,6.47,0,0,1,2.75,2.26,14.39,14.39,0,0,1,1.92,4,32,32,0,0,1,1.17,5.18,61.23,61.23,0,0,1,.58,11.51,93,93,0,0,1-1.28,11.7A113.87,113.87,0,0,1,516,455.11q-1.66,5.86-3.65,11.58c.09.6.19,1.31.31,2.14s.23,1.66.35,2.48.23,1.61.34,2.34.18,1.32.25,1.75Zm-2.62-18.34q1.47-5.25,2.57-10.13t1.71-9.51a79.83,79.83,0,0,0,.66-9.2,59.18,59.18,0,0,0-.61-9.24c-.08-.51-.22-1.32-.44-2.43a18.17,18.17,0,0,0-.94-3.27,8.34,8.34,0,0,0-1.57-2.67,2.07,2.07,0,0,0-2.34-.61,2.85,2.85,0,0,0-1.67,2,17.66,17.66,0,0,0-.84,4.29,51,51,0,0,0-.18,6q.06,3.38.34,7.1t.69,7.63c.29,2.61.59,5.13.9,7.58s.63,4.74.93,6.88S511.17,457.81,511.39,459.39Z"></path><path class="cls-8" d="M550.85,448.2a24.16,24.16,0,0,1-.11,2.61c-.07.83-.16,1.55-.25,2.18s-.17,1.14-.24,1.54a3.58,3.58,0,0,1-.16.66,2.23,2.23,0,0,1-1.52,1.71,1.74,1.74,0,0,1-1.34-.08,1.35,1.35,0,0,1-.78-1.09.88.88,0,0,1,0-.47,5.23,5.23,0,0,0,.2-.68,13.6,13.6,0,0,0,.26-1.63c.09-.74.18-1.88.25-3.4-.55.19-1.12.36-1.71.53a5,5,0,0,1-1.68.21,2.3,2.3,0,0,1-1.38-.5,2.41,2.41,0,0,1-.75-1.58,8.33,8.33,0,0,1,.13-2.38,17.74,17.74,0,0,1,.82-3.18,15.14,15.14,0,0,1,1.38-2.92,3.6,3.6,0,0,1,1.79-1.64,2.08,2.08,0,0,1,1.94.21,4.72,4.72,0,0,1,1.39,1.64,11.43,11.43,0,0,1,.93,2.29,16.34,16.34,0,0,1,.52,2.21l1.61-.57c.53-.2,1-.38,1.52-.54a6.12,6.12,0,0,1,4.36-.21c1.08.48,1.76,1.63,2.05,3.46a18.76,18.76,0,0,1,.22,2.36c0,.83,0,1.7,0,2.59s0,1.78.07,2.65a20.31,20.31,0,0,0,.24,2.52,6.6,6.6,0,0,0,.93,2.71,4.07,4.07,0,0,0,1.48,1.4,3.35,3.35,0,0,0,1.69.41,4.74,4.74,0,0,0,1.52-.25,8.14,8.14,0,0,0,3.65-2.7,24.56,24.56,0,0,0,2.81-4.41,39.52,39.52,0,0,0,2.07-4.95c.58-1.68,1-3.13,1.41-4.37a2.29,2.29,0,0,1,.55-.89,2.15,2.15,0,0,1,.86-.54,1.47,1.47,0,0,1,1.4.09,1.51,1.51,0,0,1,.67,1.06,2,2,0,0,1-.05.92q-.76,2.32-1.8,5.29a40.39,40.39,0,0,1-2.53,5.77,25.68,25.68,0,0,1-3.57,5.11,11.6,11.6,0,0,1-4.84,3.29,8.32,8.32,0,0,1-3.36.49,6.29,6.29,0,0,1-3-1,7.36,7.36,0,0,1-2.29-2.43,10.64,10.64,0,0,1-1.31-3.87,25.72,25.72,0,0,1-.27-5,24,24,0,0,0-.23-4.73,1.72,1.72,0,0,0-.62-1.23c-.32-.21-.95-.16-1.88.15l-1.47.5C552,447.75,551.46,448,550.85,448.2Zm-3.79-2.47c0-.23-.09-.52-.16-.89a10.74,10.74,0,0,0-.26-1,5.55,5.55,0,0,0-.34-.85c-.12-.23-.23-.33-.32-.3s-.2.19-.31.48-.22.63-.33,1a11.1,11.1,0,0,0-.27,1.23c-.07.43-.12.79-.14,1.07Z"></path><path class="cls-8" d="M580.19,419.61a4.85,4.85,0,0,1-.73,3.44,5.23,5.23,0,0,1-2.81,2.25,3.81,3.81,0,0,1-3.23-.25,3.5,3.5,0,0,1-1.73-2.63,4.45,4.45,0,0,1,.06-1.78,5.18,5.18,0,0,1,.69-1.67,5.6,5.6,0,0,1,1.21-1.36,4.89,4.89,0,0,1,1.6-.87,4.14,4.14,0,0,1,1.71-.22,3.62,3.62,0,0,1,1.5.47,3.47,3.47,0,0,1,1.13,1.06A3.69,3.69,0,0,1,580.19,419.61Zm-2.61.86a1.36,1.36,0,0,0-.67-1,1.43,1.43,0,0,0-1.23-.11,2,2,0,0,0-1.32,2.17,1.3,1.3,0,0,0,.65,1,1.39,1.39,0,0,0,1.2.1,2,2,0,0,0,1.07-.85A1.76,1.76,0,0,0,577.58,420.47ZM577.13,450a113.52,113.52,0,0,1-1.37-14,2.41,2.41,0,0,1,.4-1.36,2.2,2.2,0,0,1,1.21-.93,1.33,1.33,0,0,1,1.26.15,1.59,1.59,0,0,1,.67,1.1c0,.18.08.77.16,1.74s.17,2.14.27,3.49.24,2.78.4,4.29.35,2.87.55,4.12a12.78,12.78,0,0,0,1.16,3.91,5.27,5.27,0,0,0,1.66,2,3.27,3.27,0,0,0,1.83.57,5.29,5.29,0,0,0,1.71-.29,6.18,6.18,0,0,0,2.55-1.9,20.47,20.47,0,0,0,2.43-3.67,43.5,43.5,0,0,0,2.26-5.13c.72-1.93,1.4-4,2-6.32a2.29,2.29,0,0,1,.53-1,2,2,0,0,1,.87-.57,1.42,1.42,0,0,1,1.32.14,1.61,1.61,0,0,1,.69,1.06,1.93,1.93,0,0,1-.05.87c-.25.84-.56,1.88-.94,3.11s-.83,2.52-1.35,3.87-1.12,2.72-1.79,4.11a30.63,30.63,0,0,1-2.22,3.9,19.24,19.24,0,0,1-2.68,3.19,8.74,8.74,0,0,1-3.09,1.94,7.23,7.23,0,0,1-3.85.4,7,7,0,0,1-3.11-1.5,8.83,8.83,0,0,1-2.24-3.05A16.83,16.83,0,0,1,577.13,450Z"></path><path class="cls-8" d="M600.89,433.22c-.1.56-.22,1.2-.38,1.92s-.34,1.47-.56,2.28a6.43,6.43,0,0,1-.64,1.54,1.86,1.86,0,0,1-1,.83,1.52,1.52,0,0,1-1.33-.06,1.39,1.39,0,0,1-.65-1,1.59,1.59,0,0,1,0-.42,6.11,6.11,0,0,1,.14-.62,35.36,35.36,0,0,0,1.09-4.72,35,35,0,0,0,.32-4,16,16,0,0,1-.77-1.68,8.33,8.33,0,0,1-.4-1.49,5,5,0,0,1,.22-2.72,2.58,2.58,0,0,1,1.63-1.55,1.69,1.69,0,0,1,1.83.37,3.55,3.55,0,0,1,1,2.08,8.58,8.58,0,0,1,.12,1.54c0,.52,0,1.19,0,2a45.84,45.84,0,0,0,2.9,4c.94,1.13,1.78,2.17,2.52,3.13a26.11,26.11,0,0,1,1.89,2.74,8.26,8.26,0,0,1,1,2.83,10.18,10.18,0,0,1-.13,4,9.12,9.12,0,0,1-2,3.91,2.56,2.56,0,0,0,.46-.11l.46-.16a11.94,11.94,0,0,0,4.58-2.91,20.12,20.12,0,0,0,3.38-4.53,32,32,0,0,0,2.35-5.38,52.84,52.84,0,0,0,1.53-5.48,1.81,1.81,0,0,1,1.07-1.5,1.3,1.3,0,0,1,1.28.15,1.67,1.67,0,0,1,.64,1.06,2,2,0,0,1,0,.74q-.27,1.43-.78,3.3a39.72,39.72,0,0,1-1.31,4,36.19,36.19,0,0,1-2,4.23,25.46,25.46,0,0,1-2.72,4.06,21,21,0,0,1-3.58,3.46,16.55,16.55,0,0,1-4.58,2.43,14.53,14.53,0,0,1-5.91.9,7.67,7.67,0,0,1-4.93-2.16,1.35,1.35,0,0,1-.43-.81,2.35,2.35,0,0,1,1.45-2.41,1.56,1.56,0,0,1,1.34.09,1,1,0,0,0,.37.19q.32.12.75.24a3.73,3.73,0,0,0,1,.13,3.32,3.32,0,0,0,1.11-.19,4.25,4.25,0,0,0,1.78-1.12,5.33,5.33,0,0,0,1-1.58,5.79,5.79,0,0,0,.41-1.69,5.93,5.93,0,0,0,0-1.42,7.06,7.06,0,0,0-.77-2.22,13.61,13.61,0,0,0-1.33-2c-.52-.65-1.07-1.31-1.65-2A23.28,23.28,0,0,1,600.89,433.22Z"></path><path class="cls-8" d="M649.91,386.33a1.68,1.68,0,0,1-.26,1.29,2.06,2.06,0,0,1-1.09.8l-22.12,7.21.09.5a48,48,0,0,1,.66,6c.1,2.18.12,4.39,0,6.63s-.24,4.45-.47,6.63-.49,4.23-.8,6.12-.66,3.57-1,5a20.15,20.15,0,0,1-1.12,3.35,24.78,24.78,0,0,0,2.09,3.49,13.27,13.27,0,0,0,2.38,2.58,7.18,7.18,0,0,0,2.55,1.4,4.16,4.16,0,0,0,2.63-.08,6,6,0,0,0,2.85-2.44,24.09,24.09,0,0,0,2.25-4.22,43.26,43.26,0,0,0,1.62-4.57,35.82,35.82,0,0,0,.87-3.55,2,2,0,0,1,1.34-1.62,1.39,1.39,0,0,1,1.31.13,1.62,1.62,0,0,1,.68,1,2,2,0,0,1,0,.68c-.05.25-.17.81-.37,1.69s-.47,1.92-.83,3.11-.8,2.49-1.32,3.86a24.24,24.24,0,0,1-1.87,3.91,18.3,18.3,0,0,1-2.49,3.33,7.75,7.75,0,0,1-3.12,2.09,7.84,7.84,0,0,1-5.91-.15,13.55,13.55,0,0,1-5.23-4.41,31.77,31.77,0,0,1-4.19-8,62.2,62.2,0,0,1-2.86-10.95c-.18-1-.37-2.21-.58-3.59s-.4-2.83-.58-4.38-.31-3.15-.41-4.81-.13-3.3-.1-4.92l-16.2,5.27a1.71,1.71,0,0,1-1.3,0,1.3,1.3,0,0,1-.7-1,1.76,1.76,0,0,1,.3-1.34,2.18,2.18,0,0,1,1.16-.83l16.94-5.49a25.14,25.14,0,0,1,.52-3.34,13.63,13.63,0,0,1,1-2.81,7.83,7.83,0,0,1,1.46-2.11,4.79,4.79,0,0,1,2-1.24,3.19,3.19,0,0,1,2-.05,4,4,0,0,1,1.67,1.11,7.61,7.61,0,0,1,1.32,2.06,21.59,21.59,0,0,1,1,2.81L648,385.3a1.6,1.6,0,0,1,1.24,0A1.3,1.3,0,0,1,649.91,386.33ZM620.07,390c-.27.08-.6.5-1,1.25a12,12,0,0,0-1,3.69l4.26-1.38a11.27,11.27,0,0,0-1.17-2.78Q620.59,389.85,620.07,390ZM622,425.64a75,75,0,0,0,1.28-7.41q.46-3.89.62-7.72t0-7.39a55.75,55.75,0,0,0-.69-6.41l-5.25,1.7a60.84,60.84,0,0,0,.23,7.34q.36,4.32,1.41,10.34.59,3.38,1.17,5.59A33.75,33.75,0,0,0,622,425.64Z"></path><path class="cls-8" d="M653.16,429c.27-1.07.62-2.39,1.05-4s.89-3.19,1.37-4.81,1-3.15,1.45-4.6a33.64,33.64,0,0,1,1.27-3.37,10.54,10.54,0,0,1,2.16-3.14,6.51,6.51,0,0,1,2.32-1.5,3.26,3.26,0,0,1,3.55.73,5.5,5.5,0,0,1,1.13,1.68,9.75,9.75,0,0,1,.71,2.27c.09.48.18,1.12.29,1.91s.22,1.65.35,2.57.26,1.87.4,2.85.28,1.89.41,2.75c.26-1.06.55-2.23.88-3.51s.67-2.57,1-3.84.69-2.46,1-3.58a27.49,27.49,0,0,1,1-2.79,14.29,14.29,0,0,1,2.73-4.69,7,7,0,0,1,2.63-1.84,4.47,4.47,0,0,1,2.46-.25,3.62,3.62,0,0,1,1.72.94,5.24,5.24,0,0,1,1.11,1.68,10.21,10.21,0,0,1,.61,2,26.15,26.15,0,0,1,.4,3.23,32.24,32.24,0,0,0,.56,4q.18.94.45,1.86a5.56,5.56,0,0,0,.68,1.53,2.11,2.11,0,0,0,1.09.86,2.46,2.46,0,0,0,1.67-.1,5.28,5.28,0,0,0,2-1.35,12,12,0,0,0,1.69-2.29,19.81,19.81,0,0,0,1.37-2.85c.41-1,.76-2,1.07-3s.56-1.92.77-2.8.38-1.62.49-2.22a2.13,2.13,0,0,1,.43-.95,1.74,1.74,0,0,1,.77-.55,1.31,1.31,0,0,1,1.25.16,1.68,1.68,0,0,1,.66,1.69c-.06.27-.18.84-.36,1.7s-.45,1.88-.81,3-.81,2.38-1.33,3.7a26.77,26.77,0,0,1-1.84,3.81,16.37,16.37,0,0,1-2.44,3.24,7.79,7.79,0,0,1-3.09,2,5.81,5.81,0,0,1-3.13.36,4.39,4.39,0,0,1-2.22-1.22,6.69,6.69,0,0,1-1.47-2.36,19.73,19.73,0,0,1-.87-3.1,37.19,37.19,0,0,1-.57-4.12,26.07,26.07,0,0,0-.35-2.95,5.3,5.3,0,0,0-.51-1.63,1.52,1.52,0,0,0-.63-.67.86.86,0,0,0-.57-.09l-.39.11a3.89,3.89,0,0,0-1.9,1.91,22.75,22.75,0,0,0-1.69,3.94q-.81,2.39-1.58,5.33c-.52,2-1,4-1.55,6-.31,1.13-.56,2.07-.77,2.82a10.23,10.23,0,0,1-.65,1.83,4,4,0,0,1-.73,1.08,2.48,2.48,0,0,1-.9.56,1.79,1.79,0,0,1-1.85-.22,3.24,3.24,0,0,1-1-1.94c-.08-.45-.18-1.06-.29-1.83s-.25-1.61-.39-2.53-.27-1.86-.4-2.85-.26-1.93-.4-2.83-.25-1.69-.36-2.4-.18-1.23-.25-1.59a2.58,2.58,0,0,0-.71-1.56,1,1,0,0,0-1-.21,2.6,2.6,0,0,0-1,.72,7.24,7.24,0,0,0-1.09,1.86c-.3.68-.66,1.64-1.08,2.9s-.86,2.63-1.31,4.14-.9,3.06-1.33,4.63-.8,3-1.09,4.22a9.22,9.22,0,0,1-1.34,3.27,3.65,3.65,0,0,1-1.65,1.34,2.05,2.05,0,0,1-2-.14,3,3,0,0,1-1-1.92c0-.1-.09-.66-.23-1.68s-.32-2.27-.53-3.74-.42-3-.65-4.71-.45-3.23-.65-4.68a12.29,12.29,0,0,0-.47-2.06c-.21-.61-.39-.95-.56-1a6.13,6.13,0,0,0-1.06,2.15,43,43,0,0,0-1.59,6.46,2.22,2.22,0,0,1-.52,1,2.14,2.14,0,0,1-.87.59,1.35,1.35,0,0,1-1.28-.12,1.56,1.56,0,0,1-.66-1.06,2.06,2.06,0,0,1,0-.74,37.32,37.32,0,0,1,2.46-8.48c.91-1.93,1.94-3.09,3.07-3.47a2.62,2.62,0,0,1,3,.78,5,5,0,0,1,.88,1.5,10,10,0,0,1,.52,1.81c.5,2.69.89,5.19,1.17,7.48S652.89,426.67,653.16,429Z"></path><path class="cls-8" d="M728.69,393.83c-.05.27-.17.83-.35,1.68s-.43,1.85-.75,3-.73,2.35-1.21,3.64a25.47,25.47,0,0,1-1.73,3.7,16.56,16.56,0,0,1-2.34,3.14,7.65,7.65,0,0,1-3,2,5.09,5.09,0,0,1-4.3-.24,8.1,8.1,0,0,1-3.17-3.28,16,16,0,0,1-2.51,5.15,7.87,7.87,0,0,1-3.56,2.84,6.33,6.33,0,0,1-2.89.37,5.19,5.19,0,0,1-2.44-.95,6.74,6.74,0,0,1-1.85-2.09,9.08,9.08,0,0,1-1.11-3,16.89,16.89,0,0,1,1.8-11.8,14.2,14.2,0,0,1,3.19-3.9,11.74,11.74,0,0,1,3.73-2.2,7.29,7.29,0,0,1,2.4-.41,10.2,10.2,0,0,1,2,.19,5.71,5.71,0,0,1,1.32.42l.53.26a1.74,1.74,0,0,1,.69,1,2,2,0,0,1-.22,1.3,1.62,1.62,0,0,1-.95.86,1.34,1.34,0,0,1-1.19-.1l-.44-.2a3.56,3.56,0,0,0-.87-.24,5.49,5.49,0,0,0-1.26-.07,5.59,5.59,0,0,0-1.57.33,7.89,7.89,0,0,0-2.57,1.53,9.46,9.46,0,0,0-2.24,2.81,12.71,12.71,0,0,0-1.35,3.94,13.38,13.38,0,0,0,.12,4.94,9,9,0,0,0,.51,1.65,4.22,4.22,0,0,0,.89,1.37,2.87,2.87,0,0,0,1.34.77,3.19,3.19,0,0,0,1.82-.17,4.3,4.3,0,0,0,1.6-1.12,8.16,8.16,0,0,0,1.52-2.28,14.85,14.85,0,0,0,1-3.33,16.12,16.12,0,0,0,.2-4.3,2,2,0,0,1,.32-1.21,1.75,1.75,0,0,1,1-.78,1.18,1.18,0,0,1,1.09.13,1.6,1.6,0,0,1,.69.94c.14.54.35,1.31.64,2.29a14.09,14.09,0,0,0,1.16,2.81,6.43,6.43,0,0,0,1.81,2.15,2.6,2.6,0,0,0,2.57.28,4.56,4.56,0,0,0,1.81-1.24,11.52,11.52,0,0,0,1.55-2.16,19.42,19.42,0,0,0,1.29-2.75c.39-1,.72-2,1-2.94s.53-1.89.72-2.76.35-1.62.48-2.26a2,2,0,0,1,.42-.93,1.75,1.75,0,0,1,.77-.54,1.24,1.24,0,0,1,1.21.16,1.66,1.66,0,0,1,.66,1A1.72,1.72,0,0,1,728.69,393.83Z"></path><path class="cls-8" d="M729.55,389.32c-.06.52-.15,1.1-.25,1.76s-.24,1.35-.4,2.08a6.23,6.23,0,0,1-.5,1.4,1.6,1.6,0,0,1-.9.75,1.28,1.28,0,0,1-1.17-.08,1.37,1.37,0,0,1-.62-.93,1.82,1.82,0,0,1,0-.38,4.93,4.93,0,0,1,.1-.57,33,33,0,0,0,.75-4.31,31.77,31.77,0,0,0,.12-3.67,13.19,13.19,0,0,1-.75-1.55,7.39,7.39,0,0,1-.42-1.38,4.7,4.7,0,0,1,.08-2.49,2.15,2.15,0,0,1,1.37-1.4,1.51,1.51,0,0,1,1.63.38,3.59,3.59,0,0,1,1,1.92,8.23,8.23,0,0,1,.16,1.41c0,.49,0,1.1,0,1.83a46.14,46.14,0,0,0,2.73,3.73c.87,1.06,1.66,2,2.36,2.91a26.06,26.06,0,0,1,1.78,2.56,8,8,0,0,1,1,2.6,9.79,9.79,0,0,1,.06,3.7,8,8,0,0,1-1.64,3.55,2.88,2.88,0,0,0,.4-.09l.4-.14a9.52,9.52,0,0,0,3.92-2.59,17,17,0,0,0,2.8-4.1,28.35,28.35,0,0,0,1.85-4.89,48,48,0,0,0,1.12-5c.12-.75.41-1.2.88-1.36a1.12,1.12,0,0,1,1.14.16,1.65,1.65,0,0,1,.61,1,1.74,1.74,0,0,1,0,.68c-.12.87-.3,1.88-.55,3a32.92,32.92,0,0,1-1,3.61,31.39,31.39,0,0,1-1.56,3.85,21.28,21.28,0,0,1-2.24,3.68,17.37,17.37,0,0,1-3,3.11,13.38,13.38,0,0,1-3.94,2.15,12.34,12.34,0,0,1-5.18.73,7.23,7.23,0,0,1-4.45-2.07,1.46,1.46,0,0,1-.41-.75,1.9,1.9,0,0,1,.22-1.32,1.75,1.75,0,0,1,1-.87,1.35,1.35,0,0,1,1.18.1.74.74,0,0,0,.34.19c.19.08.41.15.67.23a3.31,3.31,0,0,0,.88.14,2.72,2.72,0,0,0,1-.15,3.46,3.46,0,0,0,1.52-1,4.49,4.49,0,0,0,.84-1.44,5.51,5.51,0,0,0,.29-1.54,5.61,5.61,0,0,0-.08-1.3,7.27,7.27,0,0,0-.77-2,12.67,12.67,0,0,0-1.27-1.88c-.48-.61-1-1.23-1.54-1.86A21.83,21.83,0,0,1,729.55,389.32Z"></path><rect class="cls-2" x="1297.7" y="1023" width="172.65" height="329.56"></rect><line class="cls-5" x1="1384.03" y1="1023" x2="1384.03" y2="1352.56"></line><path class="cls-5" d="M1384,1023s-47.27-58.11-26.13-66C1384,947.31,1384,1023,1384,1023Z"></path><path class="cls-5" d="M1384,1023s7.66-74.52,28.17-65.13C1437.53,969.48,1384,1023,1384,1023Z"></path><path class="cls-21" d="M1297.7,1075.43c21.58,0,21.58,21.83,43.16,21.83s21.58-21.83,43.16-21.83,21.58,21.83,43.17,21.83,21.58-21.83,43.16-21.83"></path><path class="cls-21" d="M1297.7,1187.78c21.58,0,21.58,21.83,43.16,21.83s21.58-21.83,43.16-21.83,21.58,21.83,43.17,21.83,21.58-21.83,43.16-21.83"></path><path class="cls-21" d="M1297.7,1300.13c21.58,0,21.58,21.82,43.16,21.82s21.58-21.82,43.16-21.82,21.58,21.82,43.17,21.82,21.58-21.82,43.16-21.82"></path><line class="cls-11" x1="1320.48" y1="1147.68" x2="1367.05" y2="1147.68"></line><line class="cls-11" x1="1343.76" y1="1124.39" x2="1343.76" y2="1170.96"></line><line class="cls-11" x1="1332.79" y1="1137.13" x2="1353.87" y2="1158.22"></line><line class="cls-11" x1="1353.87" y1="1137.13" x2="1332.79" y2="1158.22"></line><line class="cls-11" x1="1403.69" y1="1287.76" x2="1450.25" y2="1287.76"></line><line class="cls-11" x1="1426.97" y1="1264.48" x2="1426.97" y2="1311.04"></line><line class="cls-11" x1="1416" y1="1277.22" x2="1437.08" y2="1298.3"></line><line class="cls-11" x1="1437.08" y1="1277.22" x2="1416" y2="1298.3"></line><line class="cls-11" x1="1403.69" y1="1057.2" x2="1450.25" y2="1057.2"></line><line class="cls-11" x1="1426.97" y1="1033.92" x2="1426.97" y2="1080.48"></line><line class="cls-11" x1="1416" y1="1046.66" x2="1437.08" y2="1067.74"></line><line class="cls-11" x1="1437.08" y1="1046.66" x2="1416" y2="1067.74"></line><polygon class="cls-9" points="1215.82 1251.43 1154.08 1313.18 1154.08 1252.37 1155.02 1251.43 1215.82 1251.43"></polygon><polygon class="cls-10" points="1276.5 1251.43 1175.38 1352.56 1154.08 1352.56 1154.08 1313.05 1215.7 1251.43 1276.5 1251.43"></polygon><polygon class="cls-9" points="1297.7 1251.43 1297.7 1290.92 1236.06 1352.56 1175.25 1352.56 1276.38 1251.43 1297.7 1251.43"></polygon><polygon class="cls-10" points="1297.7 1290.79 1297.7 1351.6 1296.74 1352.56 1235.93 1352.56 1297.7 1290.79"></polygon><path class="cls-5" d="M1226.17,1251.43s-47.28-58.11-26.14-66C1226.17,1175.73,1226.17,1251.43,1226.17,1251.43Z"></path><path class="cls-17" d="M1170.22,1345.6s1.76-20.13,12.18-35"></path><polyline class="cls-17" points="1165.8 1329 1170.79 1341.37 1181.59 1333.24"></polyline><polyline class="cls-17" points="1170.22 1315.25 1174 1328.12 1184.7 1320.52"></polyline><path class="cls-17" d="M1211.69,1297.23s5-19.59,17.65-32.56"></path><polyline class="cls-17" points="1210 1280.13 1212.93 1293.14 1224.9 1286.85"></polyline><polyline class="cls-17" points="1216.57 1267.27 1218.23 1280.58 1230.01 1274.8"></polyline><path class="cls-17" d="M1238.22,1332.43s6.93-19,20.85-30.61"></path><polyline class="cls-17" points="1238.27 1315.25 1239.88 1328.49 1252.41 1323.44"></polyline><polyline class="cls-17" points="1246.1 1303.12 1246.41 1316.52 1258.72 1311.97"></polyline><path class="cls-5" d="M1226.17,1251.43s7.66-74.52,28.17-65.13C1279.69,1197.91,1226.17,1251.43,1226.17,1251.43Z"></path><line class="cls-5" x1="1225.89" y1="1352.56" x2="1225.89" y2="1251.43"></line><path class="cls-5" d="M1122.06,1151s-21.53-41-1.75-42C1136.17,1108.13,1122.06,1151,1122.06,1151Z"></path><circle class="cls-10" cx="1065.53" cy="1195.07" r="27.62"></circle><polygon class="cls-8" points="1057.9 1168.72 1073.16 1168.72 1070.14 1161.01 1060.92 1161.01 1057.9 1168.72"></polygon><path class="cls-11" d="M1042.26,1180.2c-2,3.09,6.84,12.26,19.69,20.47s24.87,12.37,26.84,9.28"></path><path class="cls-11" d="M1051.57,1170.55c1.68,4.19,9.36,11.36,19.62,17.92,8.62,5.51,16.86,9.19,22,10.09"></path><path class="cls-5" d="M1067.57,1163.25s-3.2-14.88,2.72-26.6c6.64-13.14,16.82-25,27.94-17.13s6.2,20.69-12.36,26.42S1067.57,1152.86,1067.57,1163.25Z"></path><circle class="cls-3" cx="994.95" cy="1202.84" r="36.01"></circle><polygon class="cls-8" points="991.55 1167.24 973.06 1174.56 973.01 1163.76 984.19 1159.34 991.55 1167.24"></polygon><path class="cls-5" d="M977.29,1163.25s-25-19.62-14.14-29.68S981.53,1148.8,977.29,1163.25Z"></path><path class="cls-2" d="M1138.41,1167.89h0c-9.46-1.47-16.35-8.61-16.35-16.94,0,8.33-6.88,15.47-16.34,16.94h0c-13.33,2.07-20.45,14.87-13.94,25.16,3.62,5.73,9.47,11.44,18.89,15.56l2.93,1.46c4.74,2.37,7.66,6.76,7.66,11.5h1.61c0-4.74,2.92-9.13,7.66-11.5l2.93-1.46c9.42-4.12,15.27-9.83,18.89-15.56C1158.85,1182.76,1151.74,1170,1138.41,1167.89Z"></path><rect class="cls-6" x="949.56" y="1202.84" width="204.52" height="149.72"></rect><rect class="cls-10" x="949.56" y="1286.66" width="204.52" height="26.45"></rect></svg>